<svg id="Capa_1" enable-background="new 0 0 512.089 512.089" height="512" viewBox="0 0 512.089 512.089" width="512" xmlns="http://www.w3.org/2000/svg"><g><path d="m232.329 3.923c-1.419-2.497-4.196-3.923-7.068-3.923h-167.41l-10.532 30.917v50.9c0 19.655 10.406 31.914 27.428 41.742l44.081 25.45c13.05 7.534 36.65 11.178 36.65 11.178 4.302-1.223 8.489-2.981 12.461-5.274l44.081-25.45c17.022-9.828 27.508-27.99 27.508-47.645v-50.9c.001-9.647-2.595-18.889-7.199-26.995z" fill="#ffe09f"/><path d="m57.851 81.815v-81.815c-4.663 0-8.906 2.67-10.952 6.86-3.6 7.372-5.564 15.571-5.564 24.057v50.9c0 19.655 10.486 37.817 27.508 47.645l44.081 25.45c13.045 7.532 28.425 9.287 42.554 5.275l-78.377-45.034c-11.879-6.846-19.25-19.62-19.25-33.338z" fill="#f6d190"/><path d="m443.246 382.626-44.081-25.45c-17.022-9.828-37.994-9.828-55.016 0l-44.081 25.45c-4.052 2.34-7.735 5.152-10.993 8.344l-5.555 21.619 1 91.25 20.136 8.25h146.715c6.314 0 12.339-3.479 14.855-9.27 2.924-6.729 4.529-14.063 4.529-21.648v-50.9c-.001-19.655-10.487-37.817-27.509-47.645z" fill="#ffe09f"/><path d="m304.656 512.089c-9.692-7.198-15.579-18.65-15.579-30.883v-90.235c-10.411 10.215-16.516 24.375-16.516 39.337v50.9c0 7.567 1.597 14.885 4.509 21.601 2.513 5.797 8.541 9.279 14.858 9.279h12.728z" fill="#f6d190"/><g fill="#ffe09f"><path d="m212.021 382.537-44.081-25.45c-17.022-9.828-37.994-9.828-55.016 0l-44.081 25.45c-4.052 2.34-7.735 5.152-10.993 8.344l-5.555 21.619 1 91.25 20.135 8.25h146.715c6.314 0 12.339-3.479 14.855-9.27 2.924-6.729 4.529-14.063 4.529-21.648v-50.9c0-19.655-10.486-37.818-27.508-47.645z"/><path d="m96.408 182.941-44.081-25.45c-12.095-6.983-26.162-8.941-39.401-5.969-7.537 1.692-12.881 8.454-12.881 16.179v176.67c0 7.725 5.343 14.487 12.881 16.179 13.239 2.972 27.306 1.014 39.401-5.969l44.081-25.45c17.022-9.828 27.508-27.99 27.508-47.645v-50.9c0-19.655-10.486-37.817-27.508-47.645z"/><path d="m463.555 3.923c-1.419-2.497-4.196-3.923-7.068-3.923h-167.41l-10.532 30.917v50.9c0 19.655 10.406 31.914 27.428 41.742l44.081 25.45c13.05 7.534 36.65 11.178 36.65 11.178 4.302-1.223 8.489-2.981 12.461-5.274l44.081-25.45c17.022-9.828 27.508-27.99 27.508-47.645v-50.9c0-9.647-2.595-18.889-7.199-26.995z"/></g><path d="m289.077 81.815v-81.815c-4.663 0-8.906 2.67-10.952 6.86-3.6 7.372-5.564 15.571-5.564 24.057v50.9c0 19.655 10.486 37.817 27.508 47.645l44.081 25.45c13.045 7.532 28.425 9.287 42.554 5.275l-78.377-45.034c-11.879-6.846-19.25-19.62-19.25-33.338z" fill="#f6d190"/><path d="m499.164 151.522c-13.239-2.972-27.306-1.014-39.402 5.969l-44.081 25.45c-4.054 2.341-7.733 5.159-10.992 8.353l-9.145 39.293v50.9c0 19.655 8.478 32.686 25.5 42.514l60 31 20.973 4.629c5.997-2.566 10.027-8.549 10.027-15.258v-176.67c.001-7.726-5.342-14.488-12.88-16.18z" fill="#ffe09f"/><path d="m327.633 182.941-44.081-25.45c-17.022-9.828-37.993-9.828-55.016 0l-44.081 25.45c-17.022 9.828-27.508 27.99-27.508 47.645v50.9c0 19.655 10.486 37.818 27.508 47.645l44.081 25.45c17.022 9.828 37.994 9.828 55.016 0l44.081-25.45c17.022-9.828 27.508-27.99 27.508-47.645v-50.9c0-19.655-10.485-37.817-27.508-47.645z" fill="#ecbd83"/><path d="m190.927 179.205-6.471 3.736c-2.759 1.593-5.275 3.473-7.673 5.475l144.425 144.425 6.425-3.71c2.774-1.601 5.302-3.494 7.712-5.509z" fill="#e2a975"/><path d="m73.43 512c-9.692-7.198-15.579-18.65-15.579-30.883v-90.235c-10.411 10.215-16.516 24.375-16.516 39.337v50.9c0 7.567 1.597 14.885 4.509 21.601 2.513 5.797 8.541 9.279 14.858 9.279h12.728z" fill="#f6d190"/><path d="m181.722 445.935c0 5.858-1.525 11.36-4.199 16.13-5.654 10.086-16.448 13.559-28.833 13.559-18.243 0-26.395-11.446-26.395-29.69 0-12.393.187-23.191 10.283-28.843 4.766-2.668 10.262-4.189 16.112-4.189 18.243.001 33.032 14.79 33.032 33.033z" fill="#ecbd83"/><path d="m161.077 466.581c-18.243 0-33.032-14.789-33.032-33.032 0-5.928 1.799-11.646 4.533-16.456-9.991 5.68-16.92 16.528-16.92 28.843 0 18.243 14.789 33.032 33.032 33.032 12.315 0 23.153-6.911 28.833-16.902-4.81 2.734-10.518 4.515-16.446 4.515z" fill="#e2a975"/><path d="m355.141 256.71-76.741-76.742c-3.226-3.226-8.452-3.226-11.677 0-3.226 3.226-3.226 8.452 0 11.677l88.419 88.419v-23.354z" fill="#e2a975"/><path d="m192.714 314.823c-11.879-6.847-19.25-19.621-19.25-33.339v-5.548l38.371 38.371c1.613 1.613 3.726 2.419 5.839 2.419s4.226-.806 5.839-2.419c3.226-3.226 3.226-8.452 0-11.677l-50.048-50.048v-61.242c-10.411 10.215-16.516 24.285-16.516 39.248v50.9c0 19.655 10.486 37.818 27.508 47.645l44.081 25.45c13.045 7.532 28.398 9.239 42.527 5.226z" fill="#e2a975"/><path d="m396.432 445.935c0 5.858-1.525 11.36-4.199 16.13-5.655 10.086-16.448 13.559-28.833 13.559-18.243 0-26.395-11.446-26.395-29.69 0-12.393.187-23.191 10.283-28.843 4.766-2.668 10.262-4.189 16.112-4.189 18.243.001 33.032 14.79 33.032 33.033z" fill="#ecbd83"/><path d="m375.787 466.581c-18.243 0-33.032-14.789-33.032-33.032 0-5.928 1.799-11.646 4.533-16.456-9.991 5.68-16.92 16.528-16.92 28.843 0 18.243 14.789 33.032 33.032 33.032 12.315 0 23.153-6.911 28.833-16.902-4.811 2.734-10.518 4.515-16.446 4.515z" fill="#e2a975"/><path d="m512.045 256c0 5.858-1.525 11.36-4.199 16.13-5.654 10.086-16.448 13.559-28.833 13.559-18.243 0-26.395-11.446-26.395-29.69 0-12.393.187-23.191 10.283-28.843 4.766-2.668 10.262-4.189 16.112-4.189 18.243.001 33.032 14.79 33.032 33.033z" fill="#ecbd83"/><path d="m491.4 276.645c-18.243 0-33.032-14.789-33.032-33.032 0-5.928 1.799-11.646 4.533-16.456-9.991 5.68-16.92 16.528-16.92 28.843 0 18.243 14.789 33.032 33.032 33.032 12.315 0 23.153-6.911 28.833-16.902-4.811 2.735-10.518 4.515-16.446 4.515z" fill="#e2a975"/><path d="m66.109 256c0 5.858-1.525 11.36-4.199 16.13-5.654 10.086-16.448 13.559-28.833 13.559-18.243 0-26.395-11.446-26.395-29.69 0-12.393.187-23.191 10.283-28.843 4.766-2.668 10.262-4.189 16.112-4.189 18.243.001 33.032 14.79 33.032 33.033z" fill="#ecbd83"/><path d="m45.464 276.645c-18.243 0-33.032-14.789-33.032-33.032 0-5.928 1.799-11.646 4.533-16.456-9.991 5.68-16.92 16.528-16.92 28.843 0 18.243 14.789 33.032 33.032 33.032 12.315 0 23.153-6.911 28.833-16.902-4.81 2.735-10.518 4.515-16.446 4.515z" fill="#e2a975"/><path d="m181.722 66.065c0 5.858-1.525 11.36-4.199 16.13-5.654 10.086-16.448 13.559-28.833 13.559-18.243 0-26.395-11.446-26.395-29.69 0-12.393.187-23.191 10.283-28.843 4.766-2.668 10.262-4.189 16.112-4.189 18.243 0 33.032 14.789 33.032 33.033z" fill="#ecbd83"/><path d="m161.077 86.71c-18.243 0-33.032-14.789-33.032-33.032 0-5.928 1.799-11.646 4.533-16.456-9.991 5.68-16.92 16.528-16.92 28.843 0 18.243 14.789 33.032 33.032 33.032 12.315 0 23.153-6.911 28.833-16.902-4.81 2.734-10.518 4.515-16.446 4.515z" fill="#e2a975"/><path d="m396.432 66.065c0 5.858-1.525 11.36-4.199 16.13-5.655 10.086-16.448 13.559-28.833 13.559-18.243 0-26.395-11.446-26.395-29.69 0-12.393.187-23.191 10.283-28.843 4.766-2.668 10.262-4.189 16.112-4.189 18.243 0 33.032 14.789 33.032 33.033z" fill="#ecbd83"/><path d="m375.787 86.71c-18.243 0-33.032-14.789-33.032-33.032 0-5.928 1.799-11.646 4.533-16.456-9.991 5.68-16.92 16.528-16.92 28.843 0 18.243 14.789 33.032 33.032 33.032 12.315 0 23.153-6.911 28.833-16.902-4.811 2.734-10.518 4.515-16.446 4.515z" fill="#e2a975"/><path d="m289.077 256c0 5.858-1.525 11.36-4.199 16.13-5.654 10.086-16.448 13.559-28.833 13.559-18.243 0-26.395-11.446-26.395-29.69 0-12.393.187-23.191 10.283-28.843 4.766-2.668 10.262-4.189 16.112-4.189 18.243.001 33.032 14.79 33.032 33.033z" fill="#e2a975"/><path d="m268.432 276.645c-18.243 0-33.032-14.789-33.032-33.032 0-5.928 1.799-11.646 4.533-16.456-9.991 5.68-16.92 16.528-16.92 28.843 0 18.243 14.789 33.032 33.032 33.032 12.315 0 23.153-6.911 28.833-16.902-4.81 2.735-10.518 4.515-16.446 4.515z" fill="#d19a6e"/><path d="m423.94 314.823c-11.879-6.847-19.25-19.621-19.25-33.339v-90.19c-10.425 10.216-16.516 24.319-16.516 39.293v50.9c0 19.655 10.486 37.818 27.508 47.645l44.081 25.45c12.096 6.983 26.163 8.941 39.402 5.969.983-.221 1.928-.529 2.829-.913z" fill="#f6d190"/></g></svg>