<?xml version="1.0" encoding="UTF-8"?>
<!DOCTYPE svg PUBLIC "-//W3C//DTD SVG 1.1//EN" "http://www.w3.org/Graphics/SVG/1.1/DTD/svg11.dtd">
<!-- Creator: CorelDRAW -->
<svg xmlns="http://www.w3.org/2000/svg" xml:space="preserve" width="224.953mm" height="53.6179mm" version="1.1" style="shape-rendering:geometricPrecision; text-rendering:geometricPrecision; image-rendering:optimizeQuality; fill-rule:evenodd; clip-rule:evenodd"
viewBox="0 0 1216.95 290.06"
 xmlns:xlink="http://www.w3.org/1999/xlink"
 xmlns:xodm="http://www.corel.com/coreldraw/odm/2003">
 <defs>
  <style type="text/css">
   <![CDATA[
    .fil5 {fill:#1B346B}
    .fil6 {fill:#9FA8A9}
    .fil0 {fill:#CBC5BB}
    .fil4 {fill:#FFFFFE}
    .fil1 {fill:#CBC5BB;fill-rule:nonzero}
    .fil3 {fill:white;fill-rule:nonzero}
    .fil2 {fill:url(#id0)}
   ]]>
  </style>
  <linearGradient id="id0" gradientUnits="userSpaceOnUse" x1="4.69" y1="144.67" x2="434.27" y2="144.67">
   <stop offset="0" style="stop-opacity:1; stop-color:#6CB9E2"/>
   <stop offset="1" style="stop-opacity:1; stop-color:#8744A0"/>
  </linearGradient>
 </defs>
 <g id="Layer_x0020_1">
  <metadata id="CorelCorpID_0Corel-Layer"/>
  <path class="fil0" d="M184.15 151.03c0.9,-7.6 6.38,-9.86 14.87,-8.65 -2.45,5.8 -7.94,8.06 -14.87,8.65z"/>
  <path class="fil0" d="M228.69 250.71c0.43,-11.03 5.38,-16.82 14.83,-17.33 6.96,8.25 0.4,10.89 0,21.66 -6.68,0.53 -7.83,-5.3 -14.83,-4.33z"/>
  <path class="fil0" d="M116.72 196.53l-6.81 2.18c-6.7,-24.55 15.16,-12.79 18.54,-12.99l1.89 6.48 5.54 -2.15c5.35,7.62 3.41,9.84 -7.43,8.66l-6.48 -4.35 -0.92 8.67 -4.33 -6.51z"/>
  <path class="fil0" d="M165.58 171.63l-11.14 1.07 0 -17.33 5.58 -2.15 -1.86 -6.51c22.75,5.68 16.48,4.43 25.99,17.33l-5.56 5.05 1.84 7.95c-3.31,1.91 -6.64,3.81 -7.42,8.67l-5.57 -2.18 -5.57 2.18c-3.15,0.79 -3.5,-1.7 -3.72,-4.36l7.43 -9.73z"/>
  <path class="fil0" d="M115.48 122.87l1.86 10.84 -1.86 2.18 -1.88 2.17c-3.28,-4.97 -10.36,2.65 -7.4,-17.35l5.54 -2.15 -1.83 -6.52c2.98,-0.79 3.69,-4.35 7.43,-4.33l1.84 6.49 5.56 -2.16 0 8.67 -9.27 2.17z"/>
  <path class="fil0" d="M93.19 105.54l-1.85 6.5c-17.14,3.64 -20.02,13.37 -25.99,-8.67l5.57 -2.15 -1.86 -6.5c1.78,-5.72 32.86,-9.22 29.71,12.99l-5.57 -2.17z"/>
  <path class="fil0" d="M186.01 171.99l-1.86 -7.94c14.38,-4.48 15.29,2.26 26.01,-4.34 -6.98,8.27 2.17,7.84 0,21.66l-5.57 2.18 1.83 6.51c-9.43,2.21 -14.38,7.35 -14.83,-8.69 -6.01,-1.21 -6.4,4.1 -11.15,4.36l0 -8.67 5.58 -5.06z"/>
  <path class="fil0" d="M219.4 192.21l1.86 -6.48c5.56,-5.07 9.06,-12.54 18.54,-13.02l-1.86 6.51 5.58 -2.17c-2.05,9.6 7.09,6.17 7.42,13.01l7.43 0 -1.86 6.48 5.58 2.18c2.77,19.61 -10.2,-6.63 -7.43,13l-5.58 -2.19 -1.85 6.54 -11.14 0 -1.86 -6.54 -5.54 2.19c-0.02,-11.56 -10.33,-11.06 -14.83,-17.35l5.54 -2.16z"/>
  <path class="fil0" d="M178.59 261.54l-1.86 -6.49c1.96,-3.49 3.87,-7.03 3.71,-13.02 -5.27,0.37 -10.52,0.71 -11.14,-4.33 4.99,-2.86 6.92,-9.28 7.43,-17.32l5.57 2.16 5.58 -2.16c6.99,0.49 2.58,14.3 11.14,13 1.61,-5.34 4.76,-8.89 11.14,-8.66l-1.35 7.73 5.06 5.24c1.94,11.1 4.92,15.18 -3.71,21.67 2.01,-8.86 -7.11,-10.32 -7.43,-4.33 3.36,5.51 -4.61,6.92 -3.72,21.65l-1.86 4.33 1.86 4.34 -3.71 0 -3.72 -7.58 -7.44 -1.09c1.39,-7.35 -2.9,-8.17 -7.42,-8.65l1.86 -6.51z"/>
  <path class="fil0" d="M262.09 159.7c-2.98,2.31 -6.03,4.52 -11.14,4.34 0.57,-13.53 22.71,-8.36 22.28,4.33l-11.14 0 0 -8.67z"/>
  <path class="fil1" d="M271.71 112.44c0,0.69 -0.02,1.36 -0.05,2.08 -0.14,3.78 -2.89,6.71 -6.13,6.55 -3.26,-0.19 -5.63,-2.83 -5.63,-7.19 0.1,-2.26 -0.02,-4.3 -0.19,-6.37 -1.86,-0.89 -4.96,-1.31 -7.35,-1.62l1.08 -13.67c5.4,0.69 11.87,1.54 16.11,6.86l1.3 1.63 0.21 2.18c0.33,3.11 0.64,6.22 0.64,9.55z"/>
  <path class="fil1" d="M124.22 196.55c0,1.28 -0.24,2.57 -0.76,3.8 -1.87,4.6 -4.52,8.17 -6.86,11.33 -2.77,3.69 -4.92,6.63 -5.51,10.31 -0.75,4.74 -4.65,7.9 -8.75,7.01 -4.09,-0.9 -6.81,-5.45 -6.03,-10.23 1.33,-8.31 5.52,-14 8.91,-18.59 1.89,-2.55 3.69,-4.96 4.73,-7.48 1.8,-4.34 6.29,-6.15 10.04,-4.07 2.66,1.55 4.22,4.66 4.22,7.91z"/>
  <path class="fil1" d="M167.99 153.23c0,1.99 -0.54,3.99 -1.68,5.69 -2.72,4.07 -7.73,4.78 -11.19,1.62 -1.27,-1.16 -2.67,-2.18 -4.06,-3.21 -4.01,-3.05 -9.02,-6.81 -12.17,-13.2 -2.2,-4.47 -0.9,-10.17 2.93,-12.73 3.83,-2.55 8.7,-1.03 10.87,3.43 1.25,2.51 3.9,4.49 7,6.82 1.8,1.36 3.57,2.72 5.23,4.22 2.01,1.82 3.07,4.56 3.07,7.35z"/>
  <path class="fil1" d="M154.84 139.5c0,0.97 -0.13,1.99 -0.38,2.98 -1.42,5.6 -6.46,8.79 -11.24,7.15 -7.4,-2.55 -13.75,-6.54 -19.91,-10.4 -3.72,-2.33 -7.4,-4.68 -11.37,-6.6 -4.59,-2.26 -6.77,-8.46 -4.83,-13.82 1.92,-5.41 7.26,-7.94 11.86,-5.66 4.47,2.18 8.7,4.82 12.92,7.48 5.57,3.5 10.84,6.83 16.44,8.73 3.95,1.36 6.51,5.59 6.51,10.16z"/>
  <path class="fil1" d="M127.77 157.93c-0.64,11.8 -10.2,16.73 -15.93,19.7l-2.74 1.24 -2.9 -6.17 -0.92 -6.49 1.99 -0.6c4.44,-2.27 7.99,-4.34 8.98,-7.17 -2.95,-6.97 -5.61,-13.73 -6.39,-21.83 -0.27,-3.54 1.9,-6.88 5,-7.27 3.09,-0.39 5.86,2.21 6.21,5.84 0.62,6.52 3.05,12.19 5.84,18.7l0.67 1.57 0.19 2.49z"/>
  <path class="fil1" d="M116.72 118.54c0,0.19 0,0.37 -0.02,0.56 -0.28,3.17 -2.67,5.52 -5.41,5.22 -9.95,-1.12 -16.87,-8.55 -21.78,-14.91 -1.82,-2.37 -1.67,-6.05 0.35,-8.16 2.05,-2.14 5.19,-1.96 7,0.41 5.59,7.2 10.17,10.53 15.37,11.11 2.55,0.28 4.49,2.82 4.49,5.77z"/>
  <path class="fil1" d="M130.04 105.55c0,1.27 -0.24,2.53 -0.78,3.74l-3.71 8.66c-1.75,4.08 -6.03,5.76 -9.55,3.7 -3.5,-2.07 -4.95,-7.05 -3.2,-11.18l3.74 -8.67c1.77,-4.11 6.05,-5.76 9.58,-3.7 2.48,1.47 3.93,4.43 3.93,7.45z"/>
  <path class="fil1" d="M128.61 105.56c0,1.62 -0.59,3.47 -1.81,4.66 -0.95,1.17 -2.37,1.85 -3.98,1.85 -1.4,0 -2.77,-0.68 -3.98,-1.85 -2.01,-2.57 -2.01,-7 0,-9.3 1.21,-1.17 2.58,-1.85 3.98,-1.85 1.61,0 3.03,0.68 3.98,1.85 1.22,1.18 1.81,3.01 1.81,4.64z"/>
  <path class="fil1" d="M154.68 83.89c0,0.85 -0.13,1.7 -0.42,2.53 -1.21,3.44 -4.58,5.15 -7.53,3.73 -2.03,-0.95 -2.62,-1.23 -6.68,6.7 -3.25,6.35 -7.72,15.07 -16.96,15.43 -3.2,0.15 -5.89,-2.76 -5.99,-6.49 -0.57,-3.85 2.39,-6.88 5.59,-7.01 2.71,-0.09 4.6,-3.43 7.4,-8.85 3.42,-6.67 9.15,-17.89 20.97,-12.32 2.25,1.06 3.62,3.61 3.62,6.29z"/>
  <path class="fil1" d="M184.69 116.39c0,0.98 -0.13,1.98 -0.43,3.01 -1.43,4.83 -5.96,7.42 -10.1,5.76 -4.25,-1.68 -8.93,-1.89 -13.48,-1.7 -0.4,0.86 -0.75,2.57 -1.26,5.23 -0.99,5.53 -2.53,13.92 -9.55,18.78 -3.8,2.63 -8.67,1.17 -10.9,-3.21 -2.29,-4.41 -1.06,-10.13 2.74,-12.74 1,-0.68 1.47,-2.98 2.15,-6.69 1.11,-5.91 2.72,-14.88 11.07,-19.03l2.68 -0.75c6.52,-0.42 14.16,-0.43 21.7,2.57 3.27,1.31 5.38,4.9 5.38,8.78z"/>
  <path class="fil1" d="M193.98 171.99c0,0.97 -0.14,1.99 -0.4,2.95 -1.39,4.87 -5.93,7.49 -10.09,5.87l-7.4 -2.87c-4.17,-1.62 -6.43,-6.9 -5.08,-11.75 1.39,-4.89 5.91,-7.53 10.09,-5.92l7.45 2.9c3.33,1.29 5.44,4.93 5.44,8.82z"/>
  <path class="fil1" d="M262.11 142.38c0,0.6 -0.06,1.2 -0.22,1.8 -0.83,3.47 -3.93,5.47 -6.91,4.51l-2.13 -0.74c-2.38,0.89 -5.15,3.35 -6.62,5.9l0.16 1.33c1.18,8.48 2.77,20.08 -4.47,28.62 -2.19,2.59 -5.71,2.6 -7.91,0.07 -2.23,-2.55 -2.23,-6.67 -0.05,-9.27 3.01,-3.54 2.51,-9.15 1.37,-17.36l-0.71 -5.49 0.62 -1.69c2.86,-7.58 10.12,-14.16 16.96,-15.33l1.24 -0.2 4.6 1.55c2.48,0.83 4.07,3.46 4.07,6.3z"/>
  <path class="fil1" d="M287.17 192.21c0,2.1 -1.08,4.13 -2.83,5 -2.36,1.18 -5.11,-0.12 -6.1,-2.87l-0.52 -1.4c-0.48,-0.29 -0.89,-0.53 -1.32,-0.73 -5.65,5.3 -12.49,7.53 -18.62,9.57 -2.48,0.79 -5.03,-0.87 -5.74,-3.74 -0.69,-2.93 0.73,-5.9 3.21,-6.71 6.4,-2.1 12.46,-4.09 16.76,-9.06l1.75 -1.96 2.37 0.5c2.45,0.53 4.73,1.63 7.66,3.72l1.27 0.9 1.73 4.67c0.24,0.68 0.37,1.42 0.37,2.12z"/>
  <path class="fil1" d="M309.83 148.88c0,3.19 -2.15,5.83 -4.93,5.9 -3.74,0.11 -5.66,0.52 -7.48,0.91 -2.74,0.67 -5.41,-1.42 -5.94,-4.59 -0.57,-3.24 1.23,-6.29 3.95,-6.89 2.26,-0.56 4.64,-1.08 9.23,-1.2 2.8,-0.1 5.11,2.49 5.17,5.73l0 0.14z"/>
  <path class="fil1" d="M111.73 96.21c0.85,0.45 2.1,0.87 3.19,1.24 1.18,0.42 2.49,0.86 3.84,1.44 -0.78,-3.64 -1.92,-6.43 -4,-7.6 -1.19,1.57 -2.32,3.02 -3.03,4.91zm15.35 17.67l-6.05 -5.57c-2.46,-2.26 -5.3,-3.21 -7.81,-4.09 -3.07,-1.06 -6.01,-2.03 -7.57,-5.21l-0.54 -1.16 0.22 -1.34c0.87,-4.71 3.24,-7.75 5.12,-10.19l2.07 -2.78 1.67 0.26c9.09,1.53 10.62,13.22 11.57,20.19l1.32 9.87z"/>
  <path class="fil1" d="M183.16 117.57c1.77,1.88 3.99,3.08 6.35,3.38 2.29,0.28 4.47,-0.31 6.32,-1.64 -0.72,-0.33 -1.87,-0.69 -3.76,-1.21 -2.08,-0.52 -4.31,-1.09 -6.36,-2.29 -0.9,0.51 -1.71,1.09 -2.55,1.76zm22.91 4.74l-1.21 1.62c-4.09,5.52 -10.05,8.21 -16.29,7.42 -6.6,-0.82 -12.49,-5.48 -15.77,-12.46l-2.02 -4.29 5.6 -4.3c2.25,-1.84 4.79,-3.95 8.37,-5.28l2.3 -0.89 1.92 1.8c0.97,0.91 3.02,1.44 5.03,1.96 4.28,1.1 11.44,2.97 11.95,12.31l0.11 2.11z"/>
  <path class="fil1" d="M117.18 233.38c0,0.75 -0.14,1.5 -0.43,2.25 -1.08,2.63 -1.89,4.77 -2.58,6.69 -1.73,4.48 -3.04,8.05 -6.09,13.43 -1.38,2.44 -4.15,3.1 -6.22,1.51 -2.07,-1.58 -2.63,-4.85 -1.28,-7.24 2.61,-4.7 3.71,-7.56 5.35,-11.91 0.75,-2 1.6,-4.22 2.69,-6.97 1.08,-2.6 3.74,-3.72 6,-2.48 1.61,0.9 2.56,2.78 2.56,4.74z"/>
  <path class="fil1" d="M120.72 233.33c0,1.1 -0.19,2.22 -0.53,3.35 -1.48,4.63 -6.21,6.77 -10.18,5.05 -1.5,-0.65 -6.13,-2.68 -12.97,-17.01 -2.04,-4.34 -0.73,-9.74 2.96,-12.15 3.69,-2.38 8.32,-0.83 10.38,3.49 2.51,5.26 4.82,8.66 5.66,9.36 3,1.31 4.68,4.45 4.68,7.91z"/>
  <path class="fil1" d="M107.46 220.38c0,2.06 -1.23,3.91 -3.04,4.32 -8.95,1.99 -17.7,4.92 -20.82,12.69 -0.87,2.22 -3.1,3.17 -4.98,2.17 -1.91,-1.05 -2.69,-3.65 -1.83,-5.83 5.17,-12.98 19.4,-16.14 26.24,-17.65 2.02,-0.45 3.98,1.09 4.39,3.49 0.05,0.24 0.05,0.54 0.05,0.82z"/>
  <path class="fil1" d="M97.56 252.88c0,1.23 -0.38,2.48 -1.16,3.47 -1.61,2.07 -4.41,2.19 -6.19,0.29 -5.12,-5.54 -9.47,-9.19 -11.36,-10.25l-1.88 -1.07 -0.48 -2.38c-0.35,-1.74 -0.89,-4.09 -0.65,-7.69 0.14,-2.79 2.21,-4.94 4.63,-4.79 2.42,0.19 4.5,2.59 4.1,5.4 -0.03,1.02 0,1.85 0.08,2.61 3.57,2.57 8.12,6.99 11.51,10.66 0.94,1.03 1.4,2.38 1.4,3.76z"/>
  <path class="fil1" d="M163.89 238.56c0,3.09 -0.32,6 -0.68,8.75 -0.35,3.26 -0.75,6.33 -0.46,9.02 0.46,4.07 -2.12,7.97 -5.7,8.41 -3.57,0.5 -6.81,-2.51 -7.22,-6.66 -0.49,-4.71 0.06,-9 0.48,-12.83 0.54,-4.53 0.94,-8.11 -0.11,-11.37 -1.24,-3.93 0.44,-8.32 3.8,-9.79 3.36,-1.47 7.12,0.53 8.39,4.45 1.13,3.5 1.48,6.81 1.48,10.01z"/>
  <path class="fil1" d="M188.78 222.54c0,1.38 -0.31,2.74 -0.99,4.02 -1.89,3.54 -5.89,4.62 -8.94,2.41l-2.82 -2.03c-2.81,-1.93 -4.82,-3.42 -6.65,-5.41l-3.02 -3.21 1.15 -4.56c2.27,-8.57 -0.14,-15.59 -5.65,-26.32 -1.85,-3.59 -0.83,-8.23 2.24,-10.39 3.1,-2.16 7.08,-0.98 8.9,2.6 4.98,9.77 9.58,20.29 7.96,33.12 0.55,0.37 1.11,0.76 1.7,1.17l3.07 2.19c1.97,1.43 3.04,3.88 3.04,6.41z"/>
  <path class="fil1" d="M171.32 171.63c0,2.8 -1.53,5.43 -3.97,6.35 -11,4.18 -20.74,10.88 -31.05,17.89l-3.1 2.14c-2.74,1.85 -6.24,0.77 -7.82,-2.44 -1.61,-3.17 -0.67,-7.3 2.05,-9.14l3.1 -2.1c10.39,-7.09 21.12,-14.42 33.28,-19.09 3.02,-1.12 6.24,0.77 7.23,4.3 0.19,0.71 0.28,1.4 0.28,2.08z"/>
  <path class="fil1" d="M141.34 239.89c0,0.9 -0.24,1.8 -0.75,2.56 -1.22,1.84 -3.48,2.16 -5.07,0.73 -2.72,-2.48 -5.46,-4.49 -8.2,-6.48l-2.64 -1.98c-1.72,-1.24 -2.22,-3.84 -1.11,-5.77 1.07,-1.98 3.29,-2.53 4.95,-1.28l2.62 1.93c2.96,2.14 5.87,4.29 8.83,6.95 0.88,0.82 1.37,2.07 1.37,3.34z"/>
  <path class="fil1" d="M137.2 211.66c0,5.01 -1.78,9.45 -3.26,13.2 -1.02,2.55 -1.99,5 -2.27,7.21 -0.4,3.26 -2.98,5.52 -5.81,5.07 -2.81,-0.48 -4.77,-3.38 -4.34,-6.78 0.49,-3.96 1.86,-7.46 3.1,-10.57 1.44,-3.57 2.4,-6.07 2.27,-8.51 -2.86,-2.93 -5.49,-7.35 -7.85,-11.38l-1.27 -2.07c-1.62,-2.67 -1.11,-6.45 1.23,-8.35 2.32,-1.91 5.55,-1.27 7.16,1.43l1.3 2.15c1.85,3.16 4.95,8.4 6.74,9.67l1.62 1.17 0.6 2.11c0.53,1.95 0.78,3.84 0.78,5.65z"/>
  <path class="fil1" d="M135.12 231.22c0,5.27 -3.58,9.68 -8.16,9.94 -6.41,0.33 -10.27,1.1 -11.22,1.51 -4.4,1.89 -9.32,-0.68 -10.99,-5.79 -1.66,-5.16 0.49,-10.81 4.85,-12.76 3.28,-1.48 8.85,-2.42 16.6,-2.85 4.72,-0.23 8.69,4 8.91,9.49l0 0.45z"/>
  <path class="fil1" d="M266.2 211.72l-0.4 6.48 -1.63 6.26c-6.57,-1.44 -14,-3.09 -19.39,-10.84 -1.91,-2.76 -1.56,-6.85 0.81,-9.12 2.4,-2.25 5.9,-1.81 7.85,0.98 2.79,4.02 7.42,5.04 12.77,6.24z"/>
  <path class="fil1" d="M240.88 209.54c0,1.19 -0.22,2.36 -0.7,3.47 -6.46,15.01 -18.48,25.64 -30.68,27.14 -3.65,0.45 -6.91,-2.66 -7.29,-6.88 -0.29,-4.29 2.27,-8.07 5.91,-8.51 8.84,-1.09 16.67,-10.44 20.2,-18.7 1.63,-3.81 5.62,-5.35 8.89,-3.43 2.32,1.35 3.67,4.08 3.67,6.9z"/>
  <path class="fil1" d="M225.22 192.19c0,0.46 -0.06,0.91 -0.12,1.4 -0.64,3.66 -3.74,6.03 -6.89,5.27 -5.79,-1.4 -8.77,-3.65 -12.56,-6.52 -1.16,-0.87 -2.48,-1.84 -4.07,-2.94 -2.74,-1.92 -3.69,-6.14 -2.01,-9.35 1.64,-3.2 5.21,-4.26 7.98,-2.36 1.72,1.22 3.16,2.29 4.41,3.24 3.39,2.56 4.95,3.74 8.64,4.61 2.72,0.68 4.61,3.51 4.61,6.65z"/>
  <path class="fil2" d="M201.52 1.99c-34.2,5.59 -61.13,23.65 -79.66,53.24 -3.01,4.8 -6.03,7.03 -11.89,7.2 -20.4,0.63 -42.85,19.53 -42.85,42.54 0,5.06 -2.23,6.98 -6.69,8.39 -18.37,5.81 -33.22,16.8 -43.85,32.78 -18.57,27.93 -21.43,57.83 -9.21,89.04 12.65,32.32 46.29,55.5 81.07,54.18 0.53,-0.02 1.06,-0.03 1.59,-0.05l33.59 0 0 0.03c1.89,0 3.8,-0.01 5.69,-0.03l29.33 0c1.27,0.05 2.53,0.09 3.8,0.16 2.28,0.11 4.49,0.06 6.61,-0.16l103.25 0c10.12,1.09 20.69,0.77 31.16,0.45 5.17,-0.16 10.32,-0.31 15.36,-0.3 12.99,0.03 26.75,1.32 39.64,-0.55 55.03,-8 92.55,-60.61 82.39,-115.38 -8.53,-46.01 -47.42,-79.59 -93.82,-80.76 -4.56,-0.12 -6.42,-1.84 -7.54,-5.94 -3.43,-12.6 -8.92,-24.26 -16.72,-34.78 -25.48,-34.32 -58.09,-52.03 -97.6,-52.04 -7.63,0 -15.51,0.66 -23.65,1.99z"/>
  <path class="fil3" d="M195.61 165.65c-3.08,0 -6.16,-0.06 -9.24,0.03 -1.46,0.05 -2.07,-0.33 -1.99,-1.9 0.12,-2.43 0.11,-4.88 0,-7.31 -0.07,-1.5 0.53,-1.83 1.9,-1.82 5.77,0.06 11.55,0.03 17.32,0.03 0.58,0 1.16,0.04 1.73,-0.01 2,-0.17 3.33,-1.56 3.24,-3.34 -0.08,-1.73 -1.36,-2.89 -3.38,-2.95 -1.92,-0.06 -3.85,-0.03 -5.77,-0.03 -4.36,0.01 -8.72,-0.03 -13.08,0.06 -1.46,0.03 -2.09,-0.34 -2,-1.92 0.12,-2.3 0.14,-4.62 0.02,-6.92 -0.08,-1.64 0.39,-2.21 2.13,-2.18 6.15,0.12 12.31,0.07 18.47,0.05 2.52,-0.01 3.94,-1.49 3.61,-3.63 -0.26,-1.7 -1.5,-2.58 -3.69,-2.58 -5.32,0 -10.65,0.03 -15.97,0.04 -0.83,0 -1.67,-0.08 -2.5,-0.01 -1.57,0.14 -2.1,-0.38 -1.94,-2.06 1.12,-11.96 6.95,-21.04 16.94,-27.42 19.94,-12.73 47.35,-3.24 55.05,18.96 0.95,2.75 1.4,5.58 1.66,8.46 0.15,1.58 -0.29,2.14 -1.95,2.12 -6.09,-0.1 -12.19,-0.06 -18.28,-0.07 -1.1,-0 -2.21,-0.02 -3.01,0.92 -0.82,0.95 -1.12,2.04 -0.63,3.21 0.61,1.46 1.79,2.09 3.36,2.09 6.03,-0.01 12.06,-0.01 18.09,-0.01 2.46,-0 2.46,-0 2.46,2.52 0,2.12 -0.11,4.24 0.01,6.35 0.09,1.57 -0.35,2.1 -2.01,2.07 -5.96,-0.1 -11.93,-0.04 -17.9,-0.03 -2.83,0 -4.23,0.99 -4.28,3.01 -0.06,2.11 1.48,3.33 4.24,3.33 5.97,0 11.93,0.05 17.89,-0.07 1.67,-0.03 2.09,0.5 2.02,2.05 -0.11,2.43 -0.1,4.87 -0.02,7.31 0.04,1.37 -0.48,1.7 -1.79,1.69 -6.09,-0.07 -12.19,-0.04 -18.28,-0.05 -2.71,-0 -4,0.95 -4.05,3 -0.05,2.13 1.5,3.4 4.18,3.39 5.9,-0.02 11.8,0.03 17.7,-0.11 1.92,-0.05 2.41,0.58 2.29,2.39 -0.15,2.3 -0.1,4.62 -0.02,6.92 0.05,1.35 -0.42,1.76 -1.77,1.75 -6.35,-0.06 -12.7,-0.05 -19.05,-0.02 -1.99,0.01 -3.28,1.24 -3.31,2.98 -0.03,1.74 1.22,3.03 3.15,3.22 0.51,0.05 1.02,0.03 1.54,0.04 5.64,0 11.29,0.01 16.93,0.01 0.45,0 0.9,0.02 1.35,0.01 0.77,-0.01 1.15,0.3 1.19,1.13 0.4,8.78 -0.42,17.25 -5.27,24.98 -7.99,12.73 -23.07,19.68 -37.66,17.15 -15.1,-2.61 -26.89,-13.65 -30.03,-28.09 -1.01,-4.63 -0.77,-9.31 -0.72,-13.99 0.01,-1.31 0.8,-1.22 1.65,-1.22 5.77,-0.01 11.55,-0.01 17.32,-0.02 0.58,0 1.15,0.02 1.73,-0.01 2.11,-0.1 3.35,-1.3 3.33,-3.18 -0.02,-1.77 -1.27,-2.96 -3.3,-3 -2.82,-0.05 -5.65,-0.01 -8.47,-0.01 -3.59,0 -7.18,-0.02 -10.77,0.01 -0.99,0.01 -1.57,-0.18 -1.56,-1.35 0.04,-2.76 0.04,-5.52 -0.02,-8.28 -0.03,-1.4 0.84,-1.33 1.77,-1.33 5.9,-0 11.8,-0.01 17.71,-0.02 0.7,-0 1.42,0.01 2.1,-0.11 1.71,-0.31 2.64,-1.56 2.56,-3.3 -0.08,-1.72 -1.16,-2.87 -2.94,-2.91 -3.33,-0.07 -6.67,-0.02 -10.01,-0.02l0 0.01z"/>
  <path class="fil3" d="M181.1 289.31c0.15,-0.87 0.55,-1.73 1.2,-2.57 2.67,-3.45 5.24,-6.97 7.76,-10.53 1.19,-1.68 2.67,-2.42 4.71,-2.4 5.9,0.06 11.8,-0.01 17.7,0.07 1.43,0.02 1.88,-0.4 1.86,-1.84 -0.07,-6.73 -0.11,-13.47 0.02,-20.2 0.03,-1.83 -0.6,-2.36 -2.28,-2.66 -14.72,-2.61 -26.48,-10.06 -35.22,-22.14 -6.46,-8.93 -9.64,-19.03 -9.74,-30.06 -0.05,-5.64 -0,-11.29 0.07,-16.93 0.03,-2.5 1.34,-4.25 3.51,-5 1.98,-0.68 4.17,-0.06 5.56,1.6 0.87,1.03 1.19,2.22 1.18,3.56 -0.04,5.32 -0.05,10.65 -0.03,15.97 0.08,24.14 19.3,43.32 43.46,43.38 21.73,0.05 39.64,-14.49 43.69,-35.44 0.82,-4.25 0.69,-8.55 0.72,-12.85 0.02,-3.65 -0.02,-7.31 0,-10.97 0.03,-3.29 2.14,-5.53 5.12,-5.51 2.95,0.03 5.21,2.35 5.16,5.53 -0.13,7.88 0.74,15.83 -0.58,23.63 -3.54,21.02 -15.61,35.19 -35.4,42.88 -3.11,1.21 -6.35,2.05 -9.68,2.39 -1.25,0.13 -1.73,0.6 -1.72,1.93 0.06,6.99 0.06,13.98 0,20.97 -0.01,1.36 0.45,1.75 1.77,1.74 5.84,-0.06 11.67,0.03 17.51,-0.05 2.32,-0.03 3.99,0.77 5.35,2.71 2.42,3.47 4.98,6.85 7.58,10.18 0.66,0.85 1.08,1.72 1.22,2.6l-80.51 0z"/>
  <path class="fil4" d="M274.65 145.22c5.95,-5.93 5.86,-15.57 0,-21.41l8.65 -8.69c10.66,10.62 10.87,27.96 0,38.8l-8.65 -8.7z"/>
  <path class="fil4" d="M289.43 160c14.07,-14.05 14.06,-36.93 0,-50.97l8.65 -8.69c18.91,18.89 18.95,49.45 0,68.36l-8.65 -8.69z"/>
  <path class="fil4" d="M157.32 153.91c-10.87,-10.83 -10.66,-28.17 0,-38.8l8.64 8.7c-5.86,5.84 -5.95,15.48 0,21.41l-8.64 8.7z"/>
  <path class="fil4" d="M142.54 168.69c-18.95,-18.91 -18.91,-49.47 0,-68.36l8.64 8.69c-14.06,14.05 -14.07,36.93 0,50.97l-8.64 8.7z"/>
  <path class="fil5" d="M491.6 181.49l51.4 0c37.02,0 62.35,-22.31 62.35,-56.58 0,-34.27 -25.34,-56.53 -62.35,-56.53l-51.4 0 0 113.12zm26.16 -21.49l0 -70.14 23.92 0c22.49,0 37.2,13.42 37.2,35.05 0,21.67 -14.71,35.09 -37.2,35.09l-23.92 0zm207.54 21.49l-25.38 -36.38c14.71,-6.28 23.27,-18.74 23.27,-35.69 0,-25.38 -18.92,-41.05 -49.11,-41.05l-48.98 0 0 113.12 26.16 0 0 -31.52 22.82 0 1.28 0 21.81 31.52 28.13 0zm-28.59 -72.07c0,12.28 -8.11,19.7 -24.1,19.7l-21.35 0 0 -39.45 21.35 0c15.99,0 24.1,7.28 24.1,19.75zm147.06 73.99c19.7,0 36.01,-7.1 46.68,-20.2l-16.81 -15.48c-7.61,8.89 -17.13,13.38 -28.45,13.38 -21.17,0 -36.19,-14.84 -36.19,-36.19 0,-21.3 15.03,-36.19 36.19,-36.19 11.32,0 20.85,4.54 28.45,13.24l16.81 -15.49c-10.67,-12.97 -26.98,-20.07 -46.55,-20.07 -35.23,0 -61.39,24.42 -61.39,58.5 0,34.13 26.16,58.51 61.25,58.51zm146.59 -1.92l27.49 0 -50.62 -113.12 -25.84 0 -50.44 113.12 26.85 0 10.03 -24.24 52.5 0 10.03 24.24zm-54.15 -44.12l17.96 -43.34 17.91 43.34 -35.87 0zm130.57 46.04c32.34,0 48.01,-16.13 48.01,-35.05 0,-41.55 -65.79,-27.17 -65.79,-48.01 0,-7.1 6,-12.92 21.49,-12.92 10.03,0 20.85,2.89 31.38,8.89l8.06 -19.88c-10.49,-6.64 -25.06,-10.03 -39.26,-10.03 -32.16,0 -47.69,15.99 -47.69,35.23 0,42.01 65.79,27.49 65.79,48.65 0,6.96 -6.32,12.14 -21.81,12.14 -13.61,0 -27.81,-4.86 -37.34,-11.82l-8.89 19.75c10.03,7.74 28.13,13.06 46.04,13.06zm87.77 -1.92l26.21 0 0 -91.81 36.19 0 0 -21.3 -98.59 0 0 21.3 36.19 0 0 91.81z"/>
  <path class="fil6" d="M509.97 222.92l-18.72 0 0 50.02 5.29 0 0 -15.8 13.43 0c12.72,0 20.44,-6.42 20.44,-17.08 0,-10.72 -7.72,-17.14 -20.44,-17.14zm-0.14 29.58l-13.29 0 0 -25.02 13.29 0c10.01,0 15.3,4.58 15.3,12.58 0,7.86 -5.29,12.44 -15.3,12.44zm43.1 20.44l33.3 0 0 -4.58 -28.02 0 0 -45.44 -5.29 0 0 50.02zm90.55 0l5.57 0 -22.87 -50.02 -5.21 0 -22.87 50.02 5.51 0 6 -13.37 27.88 0 6 13.37zm-31.95 -17.64l12.01 -26.88 12.01 26.88 -24.03 0zm64.1 17.64l5.29 0 0 -45.46 17.58 0 0 -4.56 -40.46 0 0 4.56 17.58 0 0 45.46zm76.69 -45.46l0 -4.56 -34.32 0 0 50.02 5.29 0 0 -21.23 25.87 0 0 -4.58 -25.87 0 0 -19.65 29.03 0zm43.23 45.88c15.01,0 26.21,-10.8 26.21,-25.44 0,-14.65 -11.2,-25.44 -26.21,-25.44 -15.15,0 -26.31,10.88 -26.31,25.44 0,14.59 11.16,25.44 26.31,25.44zm0 -4.72c-12.09,0 -21.09,-8.79 -21.09,-20.72 0,-11.93 8.99,-20.72 21.09,-20.72 11.99,0 20.93,8.79 20.93,20.72 0,11.93 -8.93,20.72 -20.93,20.72zm89.11 4.29l-12.22 -17.16c7.29,-2.35 11.43,-7.86 11.43,-15.72 0,-10.72 -7.72,-17.14 -20.44,-17.14l-18.72 0 0 50.02 5.29 0 0 -15.86 13.43 0c1.44,0 2.74,-0.08 4.01,-0.22l11.43 16.08 5.79 0zm-21.37 -20.36l-13.29 0 0 -25.1 13.29 0c10.01,0 15.3,4.58 15.3,12.58 0,7.86 -5.29,12.52 -15.3,12.52zm91.79 -29.66l-21.51 37.07 -21.74 -37.07 -4.36 0 0 50.02 5.08 0 0 -39.81 19.65 33.45 2.49 0 19.65 -33.67 0 40.03 5.08 0 0 -50.02 -4.36 0z"/>
 </g>
</svg>
