<svg xmlns="http://www.w3.org/2000/svg" width="221.858" height="39.107" viewBox="0 0 221.858 39.107">
  <g id="covifor-logo" transform="translate(0 0.009)">
    <path id="Path_616" data-name="Path 616" d="M281.5,81.581c-5.856-.114-10.78-2.108-14.548-6.587a19.112,19.112,0,0,1-4.274-9.912,19.7,19.7,0,0,1,2.036-12.3A18.5,18.5,0,0,1,278.282,42.8a18.791,18.791,0,0,1,20.461,11.027A20.36,20.36,0,0,1,295.416,75.5,18.024,18.024,0,0,1,284.4,81.341c-.382.058-.766.115-1.152.144C282.638,81.531,282.03,81.553,281.5,81.581Zm9.691-19.534a13.264,13.264,0,0,0-.593-4.168c-1.238-3.888-3.656-6.5-7.88-7.016a9.074,9.074,0,0,0-9.732,5.175,14.117,14.117,0,0,0-.867,9.822,9.744,9.744,0,0,0,3.29,5.479,9.377,9.377,0,0,0,6.65,1.945,8.685,8.685,0,0,0,7.914-5.321,13.946,13.946,0,0,0,1.221-5.917Z" transform="translate(-113.402 -42.497)" fill="#57316c"/>
    <path id="Path_617" data-name="Path 617" d="M116.132,81.589c-6.359-.14-11.5-2.378-15.28-7.366a19.141,19.141,0,0,1-3.7-9.415,19.658,19.658,0,0,1,3.027-13.66,18.444,18.444,0,0,1,13.126-8.435,18.827,18.827,0,0,1,19.987,11.216A20.355,20.355,0,0,1,129.651,75.8a18.145,18.145,0,0,1-11.4,5.625C117.487,81.511,116.713,81.545,116.132,81.589Zm9.572-19.6a14.542,14.542,0,0,0-.712-4.489,9.236,9.236,0,0,0-10.642-6.6,8.846,8.846,0,0,0-6.974,5.385,14.2,14.2,0,0,0-.785,9.439,10.038,10.038,0,0,0,2.813,5.168,9.212,9.212,0,0,0,7.144,2.394,8.685,8.685,0,0,0,7.943-5.342A14.234,14.234,0,0,0,125.7,61.99Z" transform="translate(-62.473 -42.498)" fill="#57316c"/>
    <path id="Path_618" data-name="Path 618" d="M353.855,81.2h-.462q-4.982,0-9.964.007a.727.727,0,0,1-.654-.317Q337.343,73.842,331.9,66.8c-.116-.151-.235-.3-.432-.551V81.172H322.88V43.5c.12-.008.253-.023.384-.023,4.47,0,8.94-.019,13.41.007a13.372,13.372,0,0,1,7.305,1.984,9.849,9.849,0,0,1,4.562,7.575,12.95,12.95,0,0,1-.619,5.966,10.5,10.5,0,0,1-6.552,6.432c-.1.039-.209.073-.311.113-.024.009-.042.033-.115.1Zm-22.39-20.915c1.214-.057,2.376-.072,3.529-.184a8.253,8.253,0,0,0,1.929-.449,3.7,3.7,0,0,0,2.544-2.918,8.473,8.473,0,0,0,.126-1.854,4.127,4.127,0,0,0-3.364-4.2,17.259,17.259,0,0,0-4.659-.33c-.035,0-.07.036-.105.056Z" transform="translate(-131.997 -42.794)" fill="#57316c"/>
    <path id="Path_619" data-name="Path 619" d="M76.311,70.851c.083.158.169.313.249.472,1.051,2.1,2.09,4.2,3.162,6.292.2.4.128.578-.228.809a18.8,18.8,0,0,1-6.632,2.612,21.682,21.682,0,0,1-12.37-.783c-6.007-2.338-10.382-6.4-12.4-12.588-2.064-6.333-.73-12.169,3.386-17.328A20.1,20.1,0,0,1,64.8,42.728a22.359,22.359,0,0,1,13.46,2.2c.575.292,1.111.662,1.7,1.018l-3.618,7.231a27.258,27.258,0,0,0-2.549-1.261,13.313,13.313,0,0,0-12.4,1.106,10.191,10.191,0,0,0-4.869,10.1,10.777,10.777,0,0,0,8.363,9.514,13.628,13.628,0,0,0,11.29-1.719A.934.934,0,0,1,76.311,70.851Z" transform="translate(-47.134 -42.493)" fill="#57316c"/>
    <path id="Path_620" data-name="Path 620" d="M187.786,43.475c-.18.441-.337.835-.5,1.227Q179.739,62.76,172.2,80.82a.522.522,0,0,1-.569.389q-2.988-.024-5.978,0a.5.5,0,0,1-.553-.348q-7.718-18.5-15.453-37c-.046-.111-.08-.228-.134-.386h.448c2.892,0,5.785.007,8.677-.009a.553.553,0,0,1,.615.435q4.584,11.948,9.19,23.888c.048.125.1.248.2.476.091-.217.15-.345.2-.477q4.6-11.942,9.19-23.888a.553.553,0,0,1,.615-.434c2.892.016,5.784.009,8.677.009Z" transform="translate(-78.641 -42.793)" fill="#57316c"/>
    <path id="Path_621" data-name="Path 621" d="M249.189,43.53v7.478H236.054v7.575H248.2V66.1H236.023V81.2h-8.579V43.53Z" transform="translate(-102.626 -42.812)" fill="#57316c"/>
    <path id="Path_622" data-name="Path 622" d="M207.07,43.511h8.547V81.185H207.07Z" transform="translate(-96.356 -42.806)" fill="#57316c"/>
  </g>
</svg>
