<svg xmlns="http://www.w3.org/2000/svg" width="202.142" height="33.597" viewBox="0 0 202.142 33.597">
    <g id="prefix__Logo" transform="translate(-41 41)">
        <path id="prefix__Path_1" fill="#3e4095" d="M21.012 6.551H9.735v6.885h9.659v6.224H9.735v13.93H0V0h21.012v6.551zm35.307 27.038h-9.5L45.307 28.3H33.559l-1.649 5.289h-9.583L35.177 0h9.864l11.27 33.589zM43.947 22.9L40.018 8.329h-.144L35.337 22.9zM81.244 0h9.811L78.387 33.589h-9.279L56.258 0h10.274l7.212 21.6L81.252 0zm16.21 0h9.735v33.589h-9.735zm41.363 0h9.8l-12.665 33.589h-9.279L113.823 0H124.1l7.212 21.6zm16.209 0h9.735v33.589h-9.735zm47.116 33.589h-9.894l-7.8-16.62h-.148v16.62h-9.735V0h12.63a26.083 26.083 0 0 1 7.531 1.132 9.435 9.435 0 0 1 5.374 3.526 8.768 8.768 0 0 1 1.6 4.978 7.386 7.386 0 0 1-1.793 5.122 15.652 15.652 0 0 1-5.738 3.64l7.972 15.2zM184.3 15.085c3.123 0 5.084-.456 5.912-1.383a5.054 5.054 0 0 0 1.239-3.5c0-3.2-1.733-4.81-5.213-4.81H184.3z" data-name="Path 1" transform="translate(41 -41)"/>
    </g>
</svg>
