<?xml version="1.0" encoding="utf-8"?>
<!-- Generator: Adobe Illustrator 27.0.1, SVG Export Plug-In . SVG Version: 6.00 Build 0)  -->
<svg version="1.1" id="Layer_1" xmlns="http://www.w3.org/2000/svg" xmlns:xlink="http://www.w3.org/1999/xlink" x="0px" y="0px"
	 viewBox="0 0 372.13 169.04" style="enable-background:new 0 0 372.13 169.04;" xml:space="preserve">
<style type="text/css">
	.st0{fill-rule:evenodd;clip-rule:evenodd;fill:url(#SVGID_1_);}
	.st1{fill-rule:evenodd;clip-rule:evenodd;fill:#C6327F;}
	.st2{fill-rule:evenodd;clip-rule:evenodd;fill:url(#SVGID_00000076605018784395090870000007732354857788748687_);}
	.st3{fill-rule:evenodd;clip-rule:evenodd;fill:#228DCA;}
	.st4{fill-rule:evenodd;clip-rule:evenodd;fill:url(#SVGID_00000055695235610276938640000013661289437547986825_);}
	.st5{fill-rule:evenodd;clip-rule:evenodd;fill:#3EB1B9;}
	.st6{fill-rule:evenodd;clip-rule:evenodd;fill:#12A64B;}
	.st7{fill-rule:evenodd;clip-rule:evenodd;fill:url(#SVGID_00000162314015133175056960000003033626326553316791_);}
	.st8{fill-rule:evenodd;clip-rule:evenodd;fill:url(#SVGID_00000072971825302990540730000017450189759849655462_);}
	.st9{fill-rule:evenodd;clip-rule:evenodd;fill:#BACE34;}
	.st10{fill-rule:evenodd;clip-rule:evenodd;fill:url(#SVGID_00000015314756279321420230000014417653121020382604_);}
	.st11{fill-rule:evenodd;clip-rule:evenodd;fill:#F0DC22;}
	.st12{fill-rule:evenodd;clip-rule:evenodd;fill:url(#SVGID_00000021099546440524189840000009038255321711702688_);}
	.st13{fill-rule:evenodd;clip-rule:evenodd;fill:url(#SVGID_00000097491415762532407150000014000139582513872558_);}
	.st14{fill-rule:evenodd;clip-rule:evenodd;fill:url(#SVGID_00000047778565820549433570000001946582502297525943_);}
	.st15{fill-rule:evenodd;clip-rule:evenodd;fill:url(#SVGID_00000154400209174455566530000011627919204661126307_);}
	.st16{fill-rule:evenodd;clip-rule:evenodd;fill:url(#SVGID_00000047759035300786182100000010920827293073579410_);}
	.st17{fill-rule:evenodd;clip-rule:evenodd;fill:url(#SVGID_00000045601146128320775240000010911938128269009584_);}
	.st18{fill-rule:evenodd;clip-rule:evenodd;fill:url(#SVGID_00000033370385834607738300000018107655696672995969_);}
	.st19{fill-rule:evenodd;clip-rule:evenodd;fill:#E55627;}
	.st20{fill-rule:evenodd;clip-rule:evenodd;fill:url(#SVGID_00000159448922864522905140000003129237797971803055_);}
	.st21{fill-rule:evenodd;clip-rule:evenodd;fill:#E02A2B;}
	.st22{fill-rule:evenodd;clip-rule:evenodd;fill:url(#SVGID_00000001640819910489719480000001441326992419472547_);}
	.st23{fill-rule:evenodd;clip-rule:evenodd;fill:#EA8C26;}
	.st24{fill-rule:evenodd;clip-rule:evenodd;fill:url(#SVGID_00000160188425323042194100000014791996537178054838_);}
	.st25{fill-rule:evenodd;clip-rule:evenodd;fill:url(#SVGID_00000085962084493738860530000012698118148344934564_);}
	.st26{fill-rule:evenodd;clip-rule:evenodd;fill:url(#SVGID_00000007403132431490850230000005273165081106973571_);}
	.st27{fill-rule:evenodd;clip-rule:evenodd;fill:url(#SVGID_00000033341120345568104300000011550202729759898010_);}
	.st28{fill-rule:evenodd;clip-rule:evenodd;fill:url(#SVGID_00000152951600188551340530000003335596198967983524_);}
	.st29{fill-rule:evenodd;clip-rule:evenodd;fill:url(#SVGID_00000139976038090601741670000008046651616482924178_);}
	.st30{fill-rule:evenodd;clip-rule:evenodd;fill:#ED1C24;}
	.st31{fill-rule:evenodd;clip-rule:evenodd;fill:url(#SVGID_00000080894943868212516290000003397132097098027151_);}
	.st32{fill-rule:evenodd;clip-rule:evenodd;fill:url(#SVGID_00000057122326315745165830000012460071767358923695_);}
	.st33{fill-rule:evenodd;clip-rule:evenodd;fill:url(#SVGID_00000077315769753146943820000013390235332470594211_);}
	.st34{fill-rule:evenodd;clip-rule:evenodd;fill:url(#SVGID_00000155148402517248373950000014949965539945374873_);}
	.st35{fill-rule:evenodd;clip-rule:evenodd;fill:url(#SVGID_00000150079196039346781050000008369238790774125460_);}
	.st36{fill-rule:evenodd;clip-rule:evenodd;fill:url(#SVGID_00000105385645902732537130000013785848273288330406_);}
	.st37{fill-rule:evenodd;clip-rule:evenodd;fill:url(#SVGID_00000119820526127641033470000016534387734318283676_);}
	.st38{fill-rule:evenodd;clip-rule:evenodd;fill:url(#SVGID_00000037658055366277324550000004839661394783026877_);}
	.st39{fill-rule:evenodd;clip-rule:evenodd;fill:url(#SVGID_00000143608969650103699320000006802355273890706111_);}
	.st40{fill-rule:evenodd;clip-rule:evenodd;fill:url(#SVGID_00000183941097560901026600000000737849430767067826_);}
	.st41{fill-rule:evenodd;clip-rule:evenodd;fill:url(#SVGID_00000155861687396606932570000016202903122379626890_);}
	.st42{fill-rule:evenodd;clip-rule:evenodd;fill:url(#SVGID_00000099636887295402278130000002690093414888525497_);}
	.st43{fill-rule:evenodd;clip-rule:evenodd;fill:url(#SVGID_00000052819823473847152950000006129180112397925250_);}
	.st44{fill-rule:evenodd;clip-rule:evenodd;fill:url(#SVGID_00000116208157640914867860000015523329812891777695_);}
	.st45{fill-rule:evenodd;clip-rule:evenodd;fill:url(#SVGID_00000114790680241416776520000014697679441614029456_);}
	.st46{fill-rule:evenodd;clip-rule:evenodd;fill:url(#SVGID_00000155134625266041093800000011979817992968295565_);}
	.st47{fill-rule:evenodd;clip-rule:evenodd;fill:url(#SVGID_00000106122064862414558970000007606913434053768591_);}
	.st48{fill-rule:evenodd;clip-rule:evenodd;fill:url(#SVGID_00000122715707484223131190000003128682806825916318_);}
	.st49{fill:#BF322D;}
	.st50{fill:#898D90;}
	.st51{fill-rule:evenodd;clip-rule:evenodd;fill:url(#SVGID_00000105386162898695861200000007224730107625645757_);}
	.st52{fill-rule:evenodd;clip-rule:evenodd;fill:url(#SVGID_00000150085897772668187130000003807845090011894958_);}
	.st53{fill-rule:evenodd;clip-rule:evenodd;fill:url(#SVGID_00000042721283964806524250000013623186518292654249_);}
	.st54{fill-rule:evenodd;clip-rule:evenodd;fill:url(#SVGID_00000021116781255423155390000011543586089834444467_);}
	.st55{fill-rule:evenodd;clip-rule:evenodd;fill:url(#SVGID_00000132059882884976995100000001285903627400417461_);}
	.st56{fill-rule:evenodd;clip-rule:evenodd;fill:url(#SVGID_00000150096592063424855650000002821573606821233283_);}
	.st57{fill-rule:evenodd;clip-rule:evenodd;fill:url(#SVGID_00000072977209363067346420000005679400497303238325_);}
	.st58{fill-rule:evenodd;clip-rule:evenodd;fill:url(#SVGID_00000111894049217381204740000011088020443294401167_);}
	.st59{fill-rule:evenodd;clip-rule:evenodd;fill:url(#SVGID_00000165919724017849724100000006042719239927168415_);}
	.st60{fill:url(#SVGID_00000020362655926942902630000007167843884958731682_);}
	.st61{fill-rule:evenodd;clip-rule:evenodd;fill:url(#SVGID_00000119819922434086816950000008311940920476272520_);}
	.st62{fill-rule:evenodd;clip-rule:evenodd;fill:url(#SVGID_00000079478218210528568850000005757395884552861847_);}
	.st63{fill-rule:evenodd;clip-rule:evenodd;fill:url(#SVGID_00000009562795459465662380000008798866947488288678_);}
	.st64{fill-rule:evenodd;clip-rule:evenodd;fill:url(#SVGID_00000000912337115987888530000005834811133171331484_);}
	.st65{fill-rule:evenodd;clip-rule:evenodd;fill:url(#SVGID_00000045579249192943592350000003048518638037928371_);}
	.st66{fill-rule:evenodd;clip-rule:evenodd;fill:url(#SVGID_00000029746183942802535140000008349931327186869175_);}
	.st67{fill-rule:evenodd;clip-rule:evenodd;fill:url(#SVGID_00000078726009345121718470000002739868276862413470_);}
	.st68{fill-rule:evenodd;clip-rule:evenodd;fill:url(#SVGID_00000048488925185922982430000004450970136286293412_);}
	.st69{fill-rule:evenodd;clip-rule:evenodd;fill:url(#SVGID_00000051368865686194218690000008989898640246193041_);}
	.st70{fill-rule:evenodd;clip-rule:evenodd;fill:url(#SVGID_00000173882393619193048340000010789861798509673898_);}
	.st71{fill-rule:evenodd;clip-rule:evenodd;fill:url(#SVGID_00000005268492173877688490000000048047022766113198_);}
	.st72{fill-rule:evenodd;clip-rule:evenodd;fill:url(#SVGID_00000051384177167887076520000007167863545851082937_);}
	.st73{fill-rule:evenodd;clip-rule:evenodd;fill:url(#SVGID_00000006681950563338966400000010051401048692113339_);}
	.st74{fill-rule:evenodd;clip-rule:evenodd;fill:url(#SVGID_00000167368365288104549920000002761635788403912094_);}
	.st75{fill-rule:evenodd;clip-rule:evenodd;fill:url(#SVGID_00000115497440959892673080000015416191980386313400_);}
	.st76{fill-rule:evenodd;clip-rule:evenodd;fill:url(#SVGID_00000063603269646073451490000018410754231020591520_);}
	.st77{fill-rule:evenodd;clip-rule:evenodd;fill:url(#SVGID_00000004529954698097178940000018366700130670499749_);}
	.st78{fill-rule:evenodd;clip-rule:evenodd;fill:url(#SVGID_00000103969010603181128600000015654006813492467125_);}
	.st79{fill-rule:evenodd;clip-rule:evenodd;fill:url(#SVGID_00000165216263343902944970000007348146948118020742_);}
	.st80{fill-rule:evenodd;clip-rule:evenodd;fill:url(#SVGID_00000133528145681588248550000016448456093699848082_);}
	.st81{fill-rule:evenodd;clip-rule:evenodd;fill:url(#SVGID_00000114780389607718781070000015998659010999200146_);}
	.st82{fill-rule:evenodd;clip-rule:evenodd;fill:url(#SVGID_00000103949221585259968080000013816751055128217516_);}
	.st83{fill-rule:evenodd;clip-rule:evenodd;fill:url(#SVGID_00000040568578341446243190000005987377115002929046_);}
	.st84{fill-rule:evenodd;clip-rule:evenodd;fill:url(#SVGID_00000139284223238725512810000008892869638787452048_);}
	.st85{fill-rule:evenodd;clip-rule:evenodd;fill:url(#SVGID_00000127734324963540943210000005846030042531236019_);}
	.st86{fill-rule:evenodd;clip-rule:evenodd;fill:url(#SVGID_00000044166048875017036110000006564402542109333436_);}
	.st87{fill-rule:evenodd;clip-rule:evenodd;fill:url(#SVGID_00000128443486483624270880000004343119037065683889_);}
	.st88{fill-rule:evenodd;clip-rule:evenodd;fill:url(#SVGID_00000142862077655962108440000005762266725003798453_);}
	.st89{fill-rule:evenodd;clip-rule:evenodd;fill:url(#SVGID_00000134972110481970215500000009753867707797135768_);}
	.st90{fill-rule:evenodd;clip-rule:evenodd;fill:url(#SVGID_00000108296588848234435330000017683640270198967965_);}
	.st91{fill-rule:evenodd;clip-rule:evenodd;fill:url(#SVGID_00000081614045919014312710000014650290630548378790_);}
	.st92{fill-rule:evenodd;clip-rule:evenodd;fill:url(#SVGID_00000016755808700180826720000001490684872670420618_);}
	.st93{fill-rule:evenodd;clip-rule:evenodd;fill:url(#SVGID_00000147212121011348735570000013490565141136272296_);}
	.st94{fill:url(#SVGID_00000059310804924704566670000005936783869332486061_);}
</style>
<g>
	<g>
		
			<linearGradient id="SVGID_1_" gradientUnits="userSpaceOnUse" x1="650.3474" y1="436.4991" x2="643.7433" y2="454.4761" gradientTransform="matrix(1 0 0 1 -464.2083 -373.9265)">
			<stop  offset="0" style="stop-color:#934A94"/>
			<stop  offset="0.37" style="stop-color:#7D2775"/>
			<stop  offset="1" style="stop-color:#7D2775"/>
		</linearGradient>
		<path class="st0" d="M187.76,89.3l-3.9-11.72c1.12-0.98,2.08-2.12,2.86-3.36c0.78-1.24,1.39-2.59,1.79-4.01
			c0.41-1.41,0.61-2.89,0.6-4.4c-0.02-1.5-0.26-3.03-0.74-4.53c-0.39-1.21-0.91-2.33-1.56-3.36c-0.64-1.03-1.4-1.96-2.25-2.79
			c-0.85-0.83-1.8-1.55-2.81-2.16c-1.01-0.61-2.09-1.1-3.22-1.47c-0.2-0.06-0.39-0.13-0.59-0.18c-0.2-0.06-0.4-0.11-0.6-0.16
			c-0.2-0.05-0.4-0.09-0.61-0.14c-0.2-0.04-0.41-0.08-0.61-0.11l0.52,0.09c0.29,0.05,0.59,0.1,0.88,0.16
			c0.29,0.06,0.58,0.13,0.87,0.2c0.29,0.07,0.57,0.15,0.86,0.23c0.29,0.08,0.57,0.17,0.85,0.26c1.62,0.53,3.17,1.24,4.63,2.12
			c1.45,0.88,2.81,1.91,4.03,3.1c1.22,1.19,2.31,2.53,3.24,4.01c0.92,1.48,1.68,3.09,2.24,4.82c0.69,2.16,1.03,4.35,1.06,6.51
			c0.02,2.16-0.27,4.28-0.85,6.31c-0.58,2.03-1.45,3.97-2.58,5.75C190.75,86.25,189.37,87.88,187.76,89.3z"/>
		<path class="st1" d="M187.63,50.96c1.48,0.49,2.9,1.14,4.23,1.94c1.33,0.8,2.56,1.76,3.68,2.85c1.11,1.09,2.1,2.33,2.95,3.68
			c0.84,1.36,1.53,2.84,2.04,4.42c0.84,2.64,1.12,5.32,0.9,7.91c-0.23,2.6-0.95,5.11-2.1,7.4c-1.15,2.29-2.74,4.37-4.68,6.1
			c-1.95,1.73-4.26,3.11-6.87,4.01c1.61-1.41,2.99-3.04,4.11-4.83c1.12-1.78,1.99-3.72,2.58-5.75c0.58-2.03,0.88-4.16,0.85-6.31
			c-0.02-2.16-0.36-4.35-1.06-6.51c-0.56-1.73-1.31-3.35-2.24-4.82c-0.92-1.48-2.01-2.82-3.24-4.01c-1.22-1.19-2.58-2.23-4.03-3.1
			c-1.45-0.87-3.01-1.58-4.63-2.12c-0.4-0.13-0.8-0.25-1.2-0.36c-0.4-0.11-0.81-0.2-1.22-0.29c-0.41-0.09-0.82-0.16-1.24-0.23
			c-0.42-0.06-0.83-0.12-1.25-0.16c1.05-0.32,2.11-0.55,3.17-0.69c1.06-0.15,2.11-0.21,3.16-0.19c1.05,0.02,2.08,0.12,3.1,0.29
			C185.65,50.39,186.65,50.64,187.63,50.96z"/>
	</g>
	<g>
		
			<linearGradient id="SVGID_00000119077673899321010440000006463230408321895354_" gradientUnits="userSpaceOnUse" x1="622.7596" y1="453.4674" x2="638.7915" y2="440.2144" gradientTransform="matrix(1 0 0 1 -464.2083 -373.9265)">
			<stop  offset="0" style="stop-color:#4C69A7"/>
			<stop  offset="1" style="stop-color:#442A72"/>
		</linearGradient>
		<path style="fill-rule:evenodd;clip-rule:evenodd;fill:url(#SVGID_00000119077673899321010440000006463230408321895354_);" d="
			M158.19,87.77l5.1-11.25c0.28,0.01,0.57,0,0.85,0c0.28-0.01,0.56-0.03,0.84-0.05c0.28-0.02,0.56-0.05,0.84-0.09
			s0.56-0.09,0.83-0.14c1.17-0.23,2.32-0.6,3.41-1.09c1.09-0.49,2.12-1.11,3.07-1.84c0.95-0.73,1.83-1.58,2.6-2.54
			c0.77-0.96,1.44-2.03,1.98-3.19c0.67-1.44,1.09-2.92,1.28-4.42c0.19-1.49,0.15-2.98-0.09-4.44c-0.24-1.46-0.7-2.87-1.33-4.2
			c-0.64-1.33-1.46-2.57-2.45-3.69l0.09-0.02c1.42,1.6,2.6,3.39,3.52,5.3c0.92,1.91,1.57,3.94,1.92,6.04
			c0.35,2.09,0.41,4.24,0.13,6.38c-0.27,2.14-0.88,4.28-1.84,6.35c-0.78,1.68-1.74,3.21-2.85,4.59c-1.11,1.38-2.37,2.6-3.74,3.66
			c-1.37,1.06-2.86,1.95-4.42,2.65c-1.57,0.71-3.21,1.24-4.9,1.57c-0.39,0.08-0.79,0.15-1.19,0.2c-0.4,0.05-0.8,0.1-1.21,0.14
			c-0.4,0.04-0.81,0.06-1.21,0.07C159.01,87.78,158.6,87.78,158.19,87.77z"/>
		<path class="st3" d="M175.22,50.81c2.49,1.21,4.63,2.87,6.37,4.83c1.74,1.96,3.09,4.22,3.97,6.64c0.89,2.42,1.32,5.01,1.23,7.62
			c-0.08,2.61-0.68,5.24-1.85,7.77c-0.72,1.54-1.6,2.95-2.61,4.21c-1.02,1.26-2.17,2.39-3.43,3.36c-1.26,0.97-2.62,1.78-4.05,2.44
			c-1.43,0.65-2.94,1.14-4.49,1.44c-0.99,0.2-2,0.32-3.02,0.37c-1.01,0.05-2.04,0.02-3.07-0.09c-1.02-0.11-2.05-0.29-3.06-0.56
			c-1.02-0.27-2.02-0.62-3.02-1.06c0.41,0.01,0.81,0.01,1.22-0.01c0.41-0.01,0.81-0.04,1.21-0.07c0.4-0.04,0.81-0.08,1.21-0.14
			c0.4-0.06,0.8-0.13,1.19-0.2c1.69-0.34,3.33-0.86,4.9-1.57c1.57-0.71,3.05-1.6,4.42-2.65c1.37-1.06,2.63-2.28,3.74-3.66
			c1.11-1.38,2.07-2.91,2.85-4.59c0.96-2.07,1.57-4.21,1.84-6.35c0.27-2.14,0.22-4.29-0.13-6.38c-0.35-2.09-1-4.12-1.92-6.04
			C177.82,54.2,176.64,52.41,175.22,50.81z"/>
	</g>
	<g>
		
			<linearGradient id="SVGID_00000106126087719060063520000016990054626104664237_" gradientUnits="userSpaceOnUse" x1="608.4193" y1="439.1985" x2="635.5117" y2="435.4935" gradientTransform="matrix(1 0 0 1 -464.2083 -373.9265)">
			<stop  offset="0" style="stop-color:#168D81"/>
			<stop  offset="0.24" style="stop-color:#168D81"/>
			<stop  offset="0.8" style="stop-color:#04625E"/>
			<stop  offset="1" style="stop-color:#04625E"/>
		</linearGradient>
		<path style="fill-rule:evenodd;clip-rule:evenodd;fill:url(#SVGID_00000106126087719060063520000016990054626104664237_);" d="
			M138.59,68.71l11.09-5.45c0.84,0.72,1.74,1.34,2.7,1.86c0.96,0.52,1.97,0.94,3.01,1.24c1.04,0.31,2.12,0.51,3.21,0.59
			c1.09,0.08,2.2,0.05,3.3-0.1c0.39-0.05,0.78-0.12,1.18-0.21c0.39-0.08,0.78-0.18,1.17-0.3c0.39-0.12,0.77-0.25,1.15-0.4
			c0.38-0.15,0.76-0.31,1.14-0.49c1.43-0.69,2.7-1.58,3.79-2.62c1.09-1.04,2.01-2.22,2.74-3.5c0.73-1.29,1.28-2.67,1.62-4.1
			c0.35-1.44,0.5-2.92,0.44-4.41l0.09-0.01c0.09,2.14-0.13,4.28-0.63,6.34c-0.5,2.06-1.28,4.05-2.33,5.9
			c-1.05,1.85-2.37,3.55-3.94,5.04c-1.57,1.49-3.39,2.77-5.45,3.77c-0.54,0.26-1.09,0.5-1.64,0.71c-0.55,0.21-1.1,0.4-1.66,0.57
			c-0.56,0.17-1.12,0.31-1.68,0.44s-1.13,0.22-1.69,0.3c-1.59,0.22-3.18,0.27-4.75,0.15c-1.57-0.12-3.12-0.4-4.62-0.85
			c-1.5-0.44-2.96-1.04-4.34-1.79C141.11,70.63,139.8,69.74,138.59,68.71z"/>
		<path class="st5" d="M175.21,50.8c1.16,2.51,1.77,5.15,1.88,7.77c0.12,2.62-0.27,5.23-1.12,7.67c-0.85,2.44-2.15,4.72-3.86,6.7
			c-1.72,1.98-3.85,3.65-6.36,4.87c-0.49,0.24-0.99,0.46-1.5,0.65c-0.5,0.2-1.01,0.37-1.52,0.53c-0.51,0.16-1.02,0.29-1.54,0.4
			c-0.52,0.11-1.03,0.21-1.55,0.28c-2.1,0.29-4.22,0.25-6.27-0.1c-2.05-0.35-4.04-1.01-5.89-1.96c-1.85-0.95-3.57-2.18-5.07-3.67
			c-1.51-1.49-2.8-3.25-3.81-5.23c1.21,1.03,2.51,1.93,3.9,2.67c1.38,0.75,2.84,1.35,4.34,1.79c1.5,0.44,3.05,0.73,4.62,0.85
			c1.57,0.12,3.16,0.07,4.75-0.15c0.56-0.08,1.13-0.18,1.69-0.3s1.12-0.27,1.68-0.44c0.56-0.17,1.11-0.36,1.66-0.57
			c0.55-0.21,1.1-0.45,1.64-0.71c2.06-1,3.88-2.28,5.45-3.77c1.57-1.49,2.89-3.19,3.94-5.04c1.05-1.85,1.83-3.83,2.33-5.9
			C175.09,55.07,175.3,52.94,175.21,50.8z"/>
	</g>
	<g>
		<g>
			<path class="st6" d="M135.42,41.82c0.39,2.12,1.09,4.15,2.05,6.04c0.97,1.89,2.2,3.64,3.66,5.19c1.46,1.55,3.15,2.9,5.04,3.99
				c1.88,1.09,3.96,1.92,6.19,2.43c0.57,0.13,1.13,0.24,1.7,0.32c0.57,0.08,1.13,0.15,1.69,0.18c0.56,0.04,1.12,0.05,1.68,0.05
				c0.56-0.01,1.11-0.04,1.66-0.08c1.51-0.14,3-0.43,4.43-0.86c1.43-0.44,2.81-1.02,4.12-1.72c1.31-0.71,2.55-1.54,3.69-2.49
				c1.15-0.95,2.21-2.01,3.15-3.17l0.32,0.42c-0.64,1.99-1.56,3.83-2.71,5.49c-1.15,1.66-2.53,3.12-4.07,4.36
				c-1.55,1.24-3.27,2.26-5.11,3.01c-1.84,0.75-3.79,1.23-5.81,1.41c-0.51,0.05-1.02,0.07-1.54,0.08c-0.52,0.01-1.04-0.01-1.56-0.04
				c-0.52-0.04-1.05-0.09-1.57-0.17c-0.53-0.08-1.05-0.17-1.58-0.29c-2.72-0.62-5.19-1.76-7.33-3.29c-2.14-1.53-3.95-3.45-5.34-5.63
				s-2.38-4.62-2.87-7.2C134.84,47.25,134.85,44.54,135.42,41.82z"/>
			
				<linearGradient id="SVGID_00000039841655252373137020000009774385953249586086_" gradientUnits="userSpaceOnUse" x1="615.0865" y1="424.4874" x2="625.3719" y2="423.5853" gradientTransform="matrix(1 0 0 1 -464.2083 -373.9265)">
				<stop  offset="0" style="stop-color:#6DB644"/>
				<stop  offset="0.46" style="stop-color:#149B4A"/>
				<stop  offset="0.88" style="stop-color:#0B6543"/>
				<stop  offset="1" style="stop-color:#0B6543"/>
			</linearGradient>
			<path style="fill-rule:evenodd;clip-rule:evenodd;fill:url(#SVGID_00000039841655252373137020000009774385953249586086_);" d="
				M135.42,41.82l12.05,2.75c0.27,1.47,0.75,2.88,1.42,4.2c0.67,1.32,1.52,2.53,2.54,3.61c1.01,1.08,2.19,2.02,3.5,2.77
				c1.31,0.76,2.75,1.33,4.3,1.69c0.4,0.09,0.79,0.16,1.18,0.22c0.39,0.06,0.79,0.1,1.18,0.13c0.39,0.03,0.78,0.04,1.17,0.03
				c0.39,0,0.77-0.02,1.15-0.06c1.12-0.1,2.21-0.32,3.26-0.66c1.05-0.34,2.06-0.78,3.02-1.33c0.96-0.54,1.85-1.19,2.67-1.92
				c0.82-0.73,1.57-1.55,2.23-2.44l0.09-0.01c-0.95,1.28-2.03,2.46-3.21,3.51c-1.19,1.05-2.47,1.98-3.84,2.77
				c-1.37,0.78-2.83,1.43-4.34,1.91c-1.51,0.48-3.09,0.8-4.7,0.94c-0.55,0.05-1.1,0.08-1.66,0.08c-0.56,0.01-1.12-0.01-1.68-0.05
				c-0.56-0.04-1.13-0.1-1.69-0.18c-0.57-0.08-1.13-0.19-1.7-0.32c-2.23-0.51-4.31-1.34-6.19-2.43c-1.88-1.09-3.58-2.44-5.04-3.99
				c-1.46-1.55-2.69-3.3-3.66-5.19C136.51,45.97,135.81,43.93,135.42,41.82z"/>
		</g>
		<path class="st6" d="M175.17,50.79c-0.03,0.11-0.05,0.22-0.08,0.33c-0.03,0.11-0.06,0.22-0.08,0.33
			c-0.03,0.11-0.06,0.22-0.09,0.33c-0.03,0.11-0.06,0.22-0.1,0.33l-0.32-0.41c0.06-0.07,0.12-0.15,0.17-0.22
			c0.06-0.07,0.11-0.15,0.17-0.22c0.06-0.08,0.11-0.15,0.17-0.23C175.06,50.95,175.11,50.87,175.17,50.79z"/>
	</g>
	<g>
		
			<linearGradient id="SVGID_00000133492527163351416940000002311670484772706714_" gradientUnits="userSpaceOnUse" x1="627.988" y1="422.8278" x2="614.2054" y2="397.3197" gradientTransform="matrix(1 0 0 1 -464.2083 -373.9265)">
			<stop  offset="0" style="stop-color:#689741"/>
			<stop  offset="1" style="stop-color:#A2B93A"/>
		</linearGradient>
		<path style="fill-rule:evenodd;clip-rule:evenodd;fill:url(#SVGID_00000133492527163351416940000002311670484772706714_);" d="
			M148.34,20.17l8.09,9.35c-0.65,1.35-1.09,2.77-1.32,4.22c-0.24,1.45-0.26,2.94-0.08,4.41c0.18,1.47,0.58,2.91,1.19,4.29
			c0.61,1.38,1.43,2.7,2.48,3.9c0.84,0.96,1.77,1.8,2.77,2.49c1,0.69,2.07,1.25,3.18,1.68c1.11,0.43,2.27,0.72,3.45,0.88
			c1.17,0.16,2.36,0.19,3.55,0.09c0.29-0.02,0.58-0.06,0.87-0.1c0.29-0.04,0.57-0.09,0.86-0.14c0.28-0.06,0.57-0.12,0.85-0.19
			c0.28-0.07,0.56-0.15,0.84-0.24l0.09-0.01c-0.4,0.13-0.81,0.24-1.21,0.34c-0.41,0.1-0.82,0.2-1.23,0.28
			c-0.41,0.08-0.82,0.15-1.24,0.21c-0.41,0.06-0.83,0.1-1.24,0.14c-1.7,0.15-3.42,0.1-5.1-0.13c-1.69-0.23-3.35-0.66-4.95-1.27
			c-1.6-0.62-3.14-1.42-4.58-2.42c-1.44-1-2.78-2.19-3.99-3.58c-1.5-1.72-2.69-3.62-3.56-5.6c-0.88-1.99-1.45-4.07-1.71-6.18
			c-0.27-2.11-0.22-4.25,0.11-6.34C146.77,24.16,147.41,22.11,148.34,20.17z"/>
		<path class="st9" d="M148.34,20.17c-0.93,1.93-1.57,3.98-1.91,6.07c-0.34,2.09-0.38,4.22-0.11,6.34c0.26,2.11,0.83,4.19,1.71,6.18
			c0.88,1.99,2.06,3.88,3.56,5.6c1.2,1.39,2.55,2.58,3.99,3.58c1.44,1,2.98,1.81,4.58,2.42c1.6,0.62,3.27,1.04,4.95,1.27
			c1.69,0.23,3.4,0.27,5.1,0.13c0.42-0.04,0.83-0.08,1.24-0.14c0.42-0.06,0.83-0.13,1.24-0.21c0.41-0.08,0.82-0.17,1.23-0.28
			c0.41-0.1,0.81-0.22,1.21-0.34c-0.84,0.7-1.73,1.33-2.64,1.88c-0.92,0.55-1.87,1.02-2.84,1.42s-1.97,0.72-2.98,0.96
			c-1.01,0.24-2.03,0.41-3.06,0.5c-1.56,0.14-3.13,0.09-4.68-0.13c-1.55-0.22-3.07-0.61-4.54-1.18s-2.88-1.32-4.2-2.24
			c-1.32-0.92-2.55-2.02-3.66-3.29c-1.83-2.11-3.15-4.48-3.98-6.97c-0.82-2.49-1.15-5.11-0.99-7.68c0.16-2.58,0.81-5.13,1.94-7.49
			C144.67,24.2,146.27,22.02,148.34,20.17z"/>
	</g>
	<g>
		
			<linearGradient id="SVGID_00000114065486263649371820000009438610607548902564_" gradientUnits="userSpaceOnUse" x1="632.2067" y1="409.6821" x2="638.4016" y2="402.3394" gradientTransform="matrix(1 0 0 1 -464.2083 -373.9265)">
			<stop  offset="0" style="stop-color:#966126"/>
			<stop  offset="1" style="stop-color:#D99B28"/>
		</linearGradient>
		<path style="fill-rule:evenodd;clip-rule:evenodd;fill:url(#SVGID_00000114065486263649371820000009438610607548902564_);" d="
			M175.03,10.21L175,22.56c-1.37,0.59-2.63,1.37-3.76,2.31c-1.13,0.94-2.12,2.04-2.94,3.26c-0.82,1.22-1.47,2.57-1.92,4.01
			c-0.44,1.44-0.68,2.97-0.68,4.56c0,1.43,0.2,2.81,0.57,4.11c0.37,1.31,0.92,2.54,1.61,3.68c0.69,1.14,1.53,2.18,2.48,3.11
			c0.95,0.92,2.02,1.73,3.18,2.39l-0.61-0.35c-1.67-0.96-3.21-2.12-4.58-3.44c-1.37-1.33-2.57-2.83-3.57-4.47
			c-0.99-1.64-1.78-3.42-2.32-5.3c-0.54-1.88-0.83-3.86-0.83-5.92c0-2.28,0.35-4.48,0.99-6.55s1.58-4.01,2.76-5.77
			c1.18-1.76,2.61-3.34,4.23-4.69S173.07,11.05,175.03,10.21z"/>
		<path class="st11" d="M175.03,10.21c-1.97,0.84-3.79,1.97-5.41,3.32s-3.05,2.93-4.23,4.69c-1.18,1.76-2.12,3.7-2.76,5.77
			s-0.99,4.27-0.99,6.55c0,2.28,0.36,4.48,1.02,6.54c0.66,2.06,1.62,3.99,2.82,5.74c1.2,1.75,2.65,3.32,4.3,4.67
			c1.64,1.35,3.47,2.47,5.43,3.32c-2.77-0.05-5.41-0.65-7.83-1.69c-2.42-1.04-4.6-2.52-6.43-4.35c-1.84-1.83-3.32-4-4.36-6.41
			c-1.03-2.41-1.6-5.05-1.6-7.84c0-2.79,0.56-5.44,1.57-7.85c1.01-2.42,2.48-4.59,4.29-6.43c1.81-1.83,3.97-3.32,6.36-4.36
			C169.63,10.84,172.26,10.24,175.03,10.21z"/>
	</g>
	<g>
		<path class="st30" d="M103.22,151.78H83.26l-5.79-18.1H48.54l-5.73,18.1H22.95l29.62-81.34h21.72L103.22,151.78L103.22,151.78z
			 M73.27,119.62l-8.73-27.34c-0.64-2.05-1.1-4.49-1.38-7.32h-0.45c-0.19,2.38-0.66,4.74-1.41,7.09l-8.85,27.57H73.27z"/>
		<polygon class="st30" points="157.62,151.78 105.49,151.78 105.49,144.35 134.64,106.92 108.39,106.92 108.39,93.7 157.39,93.7 
			157.39,102.55 129.76,138.56 157.62,138.56 		"/>
		<path class="st30" d="M184.61,132.09c0,2.46,0.58,4.34,1.76,5.59c1.18,1.26,2.75,1.9,4.71,1.9c0.99,0,1.97-0.1,2.94-0.29
			c0.99-0.17,1.98-0.37,2.96-0.56v12.6c-2.17,0.56-4.43,1.03-6.83,1.38c-2.4,0.37-4.92,0.54-7.51,0.54c-2.38,0-4.55-0.39-6.5-1.18
			c-1.94-0.79-3.6-1.94-5-3.45c-1.37-1.49-2.44-3.29-3.19-5.4c-0.76-2.13-1.14-4.51-1.14-7.16V93.7h17.81V132.09z"/>
		<path class="st30" d="M200.72,150.25v-14.52c2.96,1.78,5.9,3.1,8.83,3.97c2.93,0.87,5.69,1.3,8.31,1.3c3.17,0,5.69-0.43,7.51-1.3
			c1.84-0.87,2.75-2.19,2.75-3.97c0-1.14-0.41-2.09-1.24-2.85c-0.83-0.76-1.9-1.41-3.21-1.98c-1.3-0.56-2.73-1.09-4.28-1.53
			c-1.55-0.46-3.04-0.97-4.47-1.53c-2.3-0.87-4.34-1.82-6.1-2.81c-1.76-1.01-3.23-2.17-4.43-3.51c-1.18-1.32-2.09-2.85-2.71-4.59
			c-0.64-1.74-0.95-3.79-0.95-6.18c0-3.25,0.72-6.06,2.13-8.4c1.41-2.34,3.31-4.26,5.67-5.75c2.36-1.49,5.07-2.59,8.11-3.29
			c3.04-0.7,6.21-1.05,9.51-1.05c2.57,0,5.17,0.19,7.82,0.6c2.65,0.39,5.27,0.97,7.82,1.72v13.84c-2.26-1.33-4.69-2.32-7.28-2.98
			c-2.59-0.66-5.13-0.99-7.63-0.99c-1.18,0-2.28,0.1-3.31,0.31c-1.05,0.19-1.97,0.5-2.77,0.91c-0.79,0.39-1.41,0.91-1.86,1.53
			c-0.46,0.62-0.68,1.34-0.68,2.13c0,1.05,0.33,1.96,1.01,2.71c0.7,0.76,1.57,1.41,2.67,1.96c1.1,0.56,2.32,1.05,3.66,1.47
			c1.34,0.45,2.67,0.89,4.01,1.34c2.38,0.83,4.53,1.74,6.47,2.73c1.92,0.99,3.58,2.13,4.96,3.47c1.38,1.32,2.44,2.87,3.18,4.65
			c0.74,1.78,1.1,3.89,1.1,6.35c0,3.45-0.74,6.39-2.25,8.83c-1.49,2.44-3.47,4.41-5.94,5.94c-2.48,1.53-5.34,2.65-8.58,3.35
			c-3.23,0.7-6.58,1.04-10.07,1.04C212.09,153.19,206.18,152.21,200.72,150.25z"/>
		<path class="st30" d="M290.75,151.1c-2.65,1.39-6.64,2.09-11.96,2.09c-12.62,0-18.95-6.56-18.95-19.67v-26.6h-9.41V93.7h9.41
			V81.17l17.87-5.11V93.7h13.05v13.22H277.7v23.47c0,6.06,2.4,9.08,7.2,9.08c1.9,0,3.85-0.54,5.85-1.65V151.1z"/>
		<path class="st30" d="M349.18,151.78h-16.96v-8.34h-0.23c-3.89,6.5-9.66,9.76-17.29,9.76c-5.65,0-10.09-1.59-13.32-4.78
			c-3.23-3.19-4.84-7.47-4.84-12.8c0-11.27,6.68-17.77,20.02-19.51l15.78-2.09c0-6.35-3.45-9.53-10.34-9.53
			c-6.91,0-13.5,2.05-19.73,6.17V97.17c2.5-1.3,5.9-2.42,10.24-3.41c4.32-0.99,8.27-1.47,11.83-1.47c16.55,0,24.84,8.27,24.84,24.78
			V151.78L349.18,151.78z M332.34,128.18v-3.91l-10.55,1.36c-5.83,0.75-8.73,3.39-8.73,7.9c0,2.03,0.7,3.72,2.11,5.01
			c1.43,1.3,3.35,1.96,5.77,1.96c3.37,0,6.1-1.16,8.23-3.49C331.27,134.69,332.34,131.74,332.34,128.18z"/>
	</g>
	<g>
		
			<linearGradient id="SVGID_00000097482849950374127850000005393012109947379841_" gradientUnits="userSpaceOnUse" x1="645.4423" y1="413.8662" x2="674.5262" y2="416.2772" gradientTransform="matrix(1 0 0 1 -464.2083 -373.9265)">
			<stop  offset="0" style="stop-color:#953923"/>
			<stop  offset="0.54" style="stop-color:#953923"/>
			<stop  offset="1" style="stop-color:#CA6428"/>
		</linearGradient>
		<path style="fill-rule:evenodd;clip-rule:evenodd;fill:url(#SVGID_00000097482849950374127850000005393012109947379841_);" d="
			M214.49,41.34l-12.01,2.86c-0.65-0.88-1.4-1.68-2.21-2.39c-0.81-0.71-1.7-1.34-2.64-1.87c-0.94-0.53-1.94-0.96-2.98-1.28
			c-1.04-0.32-2.12-0.53-3.21-0.62c-0.39-0.03-0.79-0.05-1.19-0.05c-0.4,0-0.8,0.01-1.2,0.04c-0.4,0.03-0.8,0.07-1.21,0.14
			c-0.4,0.06-0.81,0.14-1.21,0.23c-1.32,0.31-2.56,0.79-3.7,1.4c-1.14,0.62-2.18,1.38-3.11,2.25c-0.93,0.87-1.74,1.85-2.43,2.92
			c-0.69,1.07-1.25,2.21-1.66,3.41l0.36-1.05c0.6-1.73,1.4-3.38,2.39-4.91c0.99-1.53,2.15-2.94,3.49-4.19
			c1.33-1.25,2.83-2.34,4.46-3.23c1.64-0.89,3.42-1.58,5.32-2.02c0.58-0.14,1.16-0.25,1.74-0.34c0.58-0.09,1.16-0.15,1.73-0.19
			c0.58-0.04,1.15-0.06,1.72-0.05c0.57,0,1.14,0.03,1.7,0.08c1.58,0.14,3.13,0.44,4.61,0.9c1.49,0.46,2.92,1.08,4.27,1.83
			c1.35,0.76,2.62,1.66,3.79,2.68C212.5,38.93,213.56,40.08,214.49,41.34z"/>
		<path class="st19" d="M196.58,26.09c2.1,0.18,4.13,0.69,6.03,1.48c1.9,0.79,3.68,1.87,5.26,3.2c1.58,1.32,2.96,2.89,4.09,4.67
			c1.13,1.78,1.99,3.75,2.54,5.9c-0.94-1.26-2-2.41-3.16-3.44c-1.17-1.02-2.44-1.92-3.79-2.68c-1.35-0.76-2.78-1.37-4.27-1.83
			c-1.49-0.46-3.04-0.77-4.61-0.9c-0.57-0.05-1.13-0.07-1.7-0.08c-0.57-0.01-1.14,0.01-1.72,0.05c-0.57,0.04-1.15,0.1-1.73,0.19
			c-0.58,0.09-1.16,0.2-1.74,0.34c-2.21,0.52-4.25,1.36-6.1,2.47c-1.85,1.11-3.5,2.48-4.93,4.04c-1.42,1.57-2.62,3.34-3.55,5.24
			c-0.94,1.9-1.61,3.94-1.99,6.05c-0.58-2.71-0.61-5.42-0.16-8c0.46-2.58,1.4-5.04,2.75-7.24c1.35-2.19,3.12-4.13,5.22-5.68
			c2.1-1.54,4.53-2.69,7.23-3.32c0.53-0.13,1.07-0.23,1.6-0.31c0.53-0.08,1.06-0.14,1.59-0.18c0.53-0.04,1.06-0.05,1.58-0.05
			C195.54,26.03,196.06,26.05,196.58,26.09z"/>
	</g>
	<g>
		
			<linearGradient id="SVGID_00000054974205522916162390000005862017048640744361_" gradientUnits="userSpaceOnUse" x1="669.4153" y1="444.7137" x2="657.8572" y2="428.5547" gradientTransform="matrix(1 0 0 1 -464.2083 -373.9265)">
			<stop  offset="0" style="stop-color:#B3232A"/>
			<stop  offset="0.59" style="stop-color:#981F26"/>
			<stop  offset="1" style="stop-color:#7E1324"/>
		</linearGradient>
		<path style="fill-rule:evenodd;clip-rule:evenodd;fill:url(#SVGID_00000054974205522916162390000005862017048640744361_);" d="
			M211.15,69.31l-10.99-5.63c0.1-1.48-0.01-2.96-0.32-4.39c-0.31-1.43-0.83-2.81-1.53-4.1c-0.7-1.29-1.6-2.48-2.66-3.54
			c-1.07-1.05-2.31-1.97-3.71-2.7c-0.36-0.18-0.72-0.36-1.08-0.51c-0.36-0.15-0.73-0.29-1.1-0.42c-0.37-0.12-0.74-0.23-1.11-0.33
			c-0.37-0.09-0.75-0.17-1.12-0.23c-0.93-0.16-1.87-0.22-2.8-0.2c-0.93,0.02-1.86,0.12-2.76,0.31c-0.91,0.19-1.8,0.45-2.66,0.8
			c-0.86,0.34-1.7,0.76-2.49,1.25l0.82-0.5c1.14-0.71,2.34-1.31,3.58-1.8c1.24-0.49,2.52-0.88,3.82-1.14
			c1.3-0.27,2.63-0.42,3.97-0.45c1.34-0.03,2.68,0.07,4.02,0.29c0.54,0.09,1.08,0.2,1.61,0.34c0.54,0.13,1.07,0.29,1.6,0.47
			c0.53,0.18,1.06,0.38,1.58,0.6c0.52,0.22,1.04,0.47,1.55,0.73c2.01,1.05,3.79,2.37,5.32,3.88c1.53,1.52,2.81,3.23,3.82,5.09
			c1.01,1.85,1.75,3.83,2.2,5.89C211.14,65.05,211.3,67.18,211.15,69.31z"/>
		<path class="st21" d="M196.51,40.31c0.5,0.08,1,0.19,1.5,0.31c0.5,0.13,0.99,0.27,1.48,0.43c0.49,0.17,0.98,0.35,1.46,0.56
			c0.48,0.21,0.96,0.43,1.44,0.68c2.45,1.28,4.53,2.99,6.19,5c1.66,2,2.91,4.29,3.7,6.73c0.79,2.44,1.12,5.03,0.94,7.62
			c-0.17,2.59-0.85,5.2-2.07,7.67c0.15-2.13-0.01-4.25-0.46-6.3c-0.45-2.06-1.19-4.04-2.2-5.89c-1.01-1.85-2.29-3.57-3.82-5.09
			c-1.53-1.52-3.31-2.83-5.32-3.88c-0.51-0.27-1.03-0.51-1.55-0.73c-0.52-0.22-1.05-0.42-1.58-0.6c-0.53-0.17-1.06-0.33-1.6-0.47
			c-0.54-0.13-1.08-0.25-1.61-0.34c-1.58-0.27-3.17-0.35-4.75-0.26c-1.58,0.09-3.14,0.34-4.66,0.76c-1.52,0.42-3,0.99-4.41,1.71
			c-1.41,0.72-2.74,1.59-3.99,2.6c1.07-1.96,2.41-3.68,3.96-5.15c1.55-1.47,3.3-2.66,5.17-3.58c1.88-0.91,3.88-1.53,5.93-1.84
			C192.32,39.95,194.43,39.95,196.51,40.31z"/>
	</g>
	<g>
		
			<linearGradient id="SVGID_00000170261171138931453590000007339611942839244479_" gradientUnits="userSpaceOnUse" x1="635.589" y1="414.8333" x2="658.9009" y2="391.9695" gradientTransform="matrix(1 0 0 1 -464.2083 -373.9265)">
			<stop  offset="0" style="stop-color:#974423"/>
			<stop  offset="0.52" style="stop-color:#D87228"/>
			<stop  offset="1" style="stop-color:#D87228"/>
		</linearGradient>
		<path style="fill-rule:evenodd;clip-rule:evenodd;fill:url(#SVGID_00000170261171138931453590000007339611942839244479_);" d="
			M198.68,17.81l-7.21,10.03c-0.27-0.06-0.55-0.11-0.83-0.16c-0.28-0.05-0.56-0.08-0.83-0.11c-0.28-0.03-0.56-0.05-0.84-0.06
			c-0.28-0.01-0.56-0.02-0.84-0.02c-1.19,0-2.37,0.15-3.53,0.42c-1.15,0.28-2.28,0.68-3.35,1.22c-1.07,0.54-2.09,1.2-3.02,2
			c-0.93,0.79-1.79,1.71-2.54,2.75c-0.8,1.11-1.42,2.29-1.87,3.51c-0.46,1.22-0.74,2.48-0.87,3.75c-0.13,1.27-0.09,2.55,0.09,3.81
			c0.19,1.26,0.52,2.5,1,3.68l-0.39-0.95c-0.69-1.7-1.18-3.48-1.45-5.29c-0.26-1.81-0.32-3.65-0.13-5.48
			c0.18-1.83,0.59-3.64,1.24-5.4c0.65-1.76,1.55-3.45,2.69-5.05c1.08-1.5,2.31-2.82,3.65-3.96c1.34-1.14,2.8-2.1,4.34-2.87
			c1.54-0.77,3.15-1.36,4.81-1.75c1.66-0.39,3.36-0.59,5.07-0.59c0.4,0,0.8,0.01,1.2,0.03c0.4,0.02,0.8,0.05,1.2,0.1
			c0.4,0.04,0.8,0.1,1.2,0.16C197.89,17.65,198.29,17.72,198.68,17.81z"/>
		<path class="st23" d="M187.07,14.17c1,0,2.01,0.07,3.01,0.22c1,0.15,1.99,0.37,2.97,0.67c0.98,0.3,1.94,0.68,2.88,1.14
			c0.94,0.46,1.86,0.99,2.74,1.61c-0.4-0.09-0.79-0.16-1.19-0.23c-0.4-0.07-0.8-0.12-1.2-0.16c-0.4-0.04-0.8-0.08-1.2-0.1
			c-0.4-0.02-0.8-0.03-1.2-0.03c-1.71,0-3.41,0.2-5.07,0.59c-1.66,0.39-3.28,0.98-4.81,1.75c-1.54,0.77-3,1.73-4.34,2.87
			c-1.34,1.14-2.57,2.46-3.65,3.96c-1.33,1.85-2.32,3.83-2.99,5.89c-0.67,2.05-1.01,4.18-1.06,6.3c-0.04,2.12,0.22,4.24,0.77,6.29
			s1.38,4.03,2.48,5.87c-2.22-1.66-4.02-3.68-5.37-5.93c-1.35-2.25-2.26-4.73-2.68-7.28c-0.42-2.55-0.37-5.17,0.2-7.73
			c0.57-2.55,1.65-5.03,3.27-7.28c0.99-1.37,2.12-2.58,3.35-3.63c1.23-1.05,2.57-1.93,3.99-2.64c1.41-0.71,2.9-1.25,4.43-1.61
			C183.94,14.36,185.5,14.17,187.07,14.17z"/>
	</g>
</g>
</svg>
