<svg id="Logo" xmlns="http://www.w3.org/2000/svg" xmlns:xlink="http://www.w3.org/1999/xlink" width="200.309" height="63.742" viewBox="0 0 200.309 63.742">
  <defs>
    <radialGradient id="radial-gradient" cx="0.391" cy="0.63" r="0.61" gradientTransform="matrix(0.428, 0.904, -0.904, 0.428, 0.793, 0.008)" gradientUnits="objectBoundingBox">
      <stop offset="0" stop-color="#fefefe"/>
      <stop offset="1" stop-color="#550043"/>
    </radialGradient>
    <radialGradient id="radial-gradient-2" cx="0.5" cy="0.499" r="0.5" gradientTransform="matrix(0.996, -0.087, 0.087, 0.996, -0.042, 0.045)" gradientUnits="objectBoundingBox">
      <stop offset="0" stop-color="#fefefe"/>
      <stop offset="1" stop-color="#ae749e"/>
    </radialGradient>
    <radialGradient id="radial-gradient-3" cx="0.61" cy="0.63" r="0.61" gradientTransform="matrix(-0.428, 0.904, 0.904, 0.428, 0.302, -0.191)" xlink:href="#radial-gradient"/>
    <radialGradient id="radial-gradient-4" cx="0.499" cy="0.499" r="0.5" gradientTransform="matrix(-0.996, -0.087, -0.087, 0.996, 1.042, 0.045)" xlink:href="#radial-gradient-2"/>
    <radialGradient id="radial-gradient-5" cx="0.61" cy="0.369" r="0.61" gradientTransform="matrix(-0.428, -0.904, 0.904, -0.428, 0.537, 1.08)" xlink:href="#radial-gradient"/>
    <radialGradient id="radial-gradient-6" cx="0.499" cy="0.5" r="0.5" gradientTransform="matrix(-0.996, 0.087, -0.087, -0.996, 1.042, 0.955)" xlink:href="#radial-gradient-2"/>
  </defs>
  <g id="_1677225079792">
    <path id="Path_4" data-name="Path 4" d="M1262.265,1032.777a3.47,3.47,0,0,0-2.045-1.818,9.735,9.735,0,0,0-3.23-.494h-5.335V1057.5a17.447,17.447,0,0,0,.474,4.712,5.251,5.251,0,0,0,2.608,2.805L1243,1065.2a3.671,3.671,0,0,0,2.1-2.49,15.661,15.661,0,0,0,.5-4.258v-27.986h-5.216a13.619,13.619,0,0,0-3.912.553,7.8,7.8,0,0,0-3.141,1.759l1.9-7.053a6.8,6.8,0,0,0,2.43.474h23.59a9.336,9.336,0,0,0,1.541-.1,4.99,4.99,0,0,0,1.185-.375Zm30.822,32.422c1.422-.711,2.134-1.462,2.134-2.262a5.944,5.944,0,0,0-.514-2.015c-.346-.869-.6-1.541-.751-2.025l-3.27-8.338H1275.74l-3.082,8.367c-.326.83-.563,1.512-.731,2.035a5.513,5.513,0,0,0-.237,1.571,2.24,2.24,0,0,0,.5,1.452,3.689,3.689,0,0,0,1.63,1.037l-10.906.178a8.112,8.112,0,0,0,3.26-3.023,46.544,46.544,0,0,0,2.489-5.572l9.9-24.776c.277-.741.5-1.383.682-1.907a4.394,4.394,0,0,0,.267-1.383,2.229,2.229,0,0,0-.385-1.343,2.583,2.583,0,0,0-1.452-.82l9.365-.178,12.329,30.288a49.681,49.681,0,0,0,2.578,5.6,7.52,7.52,0,0,0,3.29,2.934Zm-4.119-19.026-5.858-15.016-5.868,15.016Zm40.394-13.4a6.522,6.522,0,0,0-3.082-1.837,15.931,15.931,0,0,0-4.09-.474q-2.074,0-3.349.089t-2.7.326V1041.9h7.113q.652,0,1.3-.03a3.065,3.065,0,0,0,1.245-.326l.178,6.283a3.128,3.128,0,0,0-1.837-1.363,11.718,11.718,0,0,0-2.9-.3h-5.1v12.98a12.373,12.373,0,0,0,.494,3.764,3.231,3.231,0,0,0,2,2.1l-11.2.178a3.672,3.672,0,0,0,2.163-2.549,16.609,16.609,0,0,0,.5-4.376v-25.211a16.325,16.325,0,0,0-.474-4.376,3.378,3.378,0,0,0-2.193-2.312l18.967-.178h1.067a3.38,3.38,0,0,0,1.719-.356Zm24.895,0a6.523,6.523,0,0,0-3.082-1.837,15.93,15.93,0,0,0-4.09-.474q-2.075,0-3.349.089t-2.7.326V1041.9h7.113q.652,0,1.3-.03a3.065,3.065,0,0,0,1.245-.326l.178,6.283a3.128,3.128,0,0,0-1.837-1.363,11.716,11.716,0,0,0-2.9-.3h-5.1v12.98a12.377,12.377,0,0,0,.494,3.764,3.232,3.232,0,0,0,2,2.1l-11.2.178a3.672,3.672,0,0,0,2.163-2.549,16.6,16.6,0,0,0,.5-4.376v-25.211a16.34,16.34,0,0,0-.474-4.376,3.379,3.379,0,0,0-2.193-2.312l18.967-.178h1.067a3.378,3.378,0,0,0,1.719-.356Zm3.082,32.422a3.5,3.5,0,0,0,2.1-2.46,16,16,0,0,0,.5-4.287v-25.8a13.89,13.89,0,0,0-.5-4.02,3.3,3.3,0,0,0-2.1-2.253l11.262-.178a3.678,3.678,0,0,0-2.1,2.519,16,16,0,0,0-.5,4.287v25.329a16.392,16.392,0,0,0,.474,4.347,3.383,3.383,0,0,0,2.134,2.341Zm46.055-.83a17.752,17.752,0,0,1-4.238,1.333,25.51,25.51,0,0,1-4.771.445q-10.492,0-16.567-5.483t-6.076-15.026q0-9.187,5.809-14.818t15-5.631a36.6,36.6,0,0,1,5.127.356q2.519.356,5.72,1.126v6.816a22.563,22.563,0,0,0-5.335-2.519,18.816,18.816,0,0,0-5.69-.859,13.135,13.135,0,0,0-10.017,4.09,14.765,14.765,0,0,0-3.852,10.55,17.156,17.156,0,0,0,4.208,11.617,13.688,13.688,0,0,0,10.847,4.86,21.708,21.708,0,0,0,6.372-1.008,31.253,31.253,0,0,0,6.313-2.727Z" transform="translate(-1205.929 -1002.405)" fill="#550043"/>
    <g id="Group_1" data-name="Group 1" transform="translate(21.326 2.257)">
      <path id="Path_5" data-name="Path 5" d="M979.557,110.649a10.03,10.03,0,1,1-10.917-9.055A10.03,10.03,0,0,1,979.557,110.649Z" transform="translate(-959.541 -101.551)" fill="#ae749e" fill-rule="evenodd"/>
      <path id="Path_6" data-name="Path 6" d="M1068.333,214.1a7.86,7.86,0,1,1,3.742-10.466A7.859,7.859,0,0,1,1068.333,214.1Z" transform="translate(-1054.941 -196.967)" fill-rule="evenodd" fill="url(#radial-gradient)"/>
      <path id="Path_7" data-name="Path 7" d="M1089.523,387.209a5.455,5.455,0,1,1-6.344-4.389A5.455,5.455,0,0,1,1089.523,387.209Z" transform="translate(-1076.053 -376.482)" fill-rule="evenodd" fill="url(#radial-gradient-2)"/>
    </g>
    <g id="Group_2" data-name="Group 2" transform="translate(0 0)">
      <path id="Path_8" data-name="Path 8" d="M.045,9.108A10.03,10.03,0,1,0,10.962.053,10.03,10.03,0,0,0,.045,9.108Z" transform="translate(-0.001 -0.009)" fill="#ae749e" fill-rule="evenodd"/>
      <path id="Path_9" data-name="Path 9" d="M102.119,112.555a7.859,7.859,0,1,0-3.742-10.466A7.859,7.859,0,0,0,102.119,112.555Z" transform="translate(-95.45 -95.421)" fill-rule="evenodd" fill="url(#radial-gradient-3)"/>
      <path id="Path_10" data-name="Path 10" d="M292.6,285.666a5.455,5.455,0,1,0,6.344-4.388A5.455,5.455,0,0,0,292.6,285.666Z" transform="translate(-286.013 -274.939)" fill-rule="evenodd" fill="url(#radial-gradient-4)"/>
    </g>
    <g id="Group_3" data-name="Group 3" transform="translate(4.853 20.537)">
      <path id="Path_11" data-name="Path 11" d="M218.385,935a10.03,10.03,0,1,1,10.918,9.055A10.03,10.03,0,0,1,218.385,935Z" transform="translate(-218.341 -924.041)" fill="#ae749e" fill-rule="evenodd"/>
      <path id="Path_12" data-name="Path 12" d="M320.455,1022.393a7.859,7.859,0,1,1-3.742,10.466A7.859,7.859,0,0,1,320.455,1022.393Z" transform="translate(-313.786 -1019.467)" fill-rule="evenodd" fill="url(#radial-gradient-5)"/>
      <path id="Path_13" data-name="Path 13" d="M510.94,1060.955a5.455,5.455,0,1,1,6.344,4.388A5.455,5.455,0,0,1,510.94,1060.955Z" transform="translate(-504.35 -1051.622)" fill-rule="evenodd" fill="url(#radial-gradient-6)"/>
    </g>
  </g>
</svg>
