<svg id="Layer_1" enable-background="new 0 0 256 256" height="512" viewBox="0 0 256 256" width="512" xmlns="http://www.w3.org/2000/svg"><g><path d="m175.893 163.149h-19.777c0-15.429 0-25.88 0-43.419h-56.286v43.419h-19.723c-15.559 0-28.172 12.613-28.172 28.172v61.68h152.13c0-8.774 0-52.81 0-61.68 0-15.559-12.613-28.172-28.172-28.172z" fill="#f9cfcf"/><path d="m51.935 220.667h3.378c2.404 0 4.354-1.949 4.354-4.354 0-1.278 1.036-2.313 2.313-2.313h3.374c1.278 0 2.313-1.036 2.313-2.313 0-7.04-1.151-5.687 15.667-5.687 3.13 0 5.667-2.537 5.667-5.667v-2.667c0-3.13-2.537-5.667-5.667-5.667-9.008 0-8.667.605-8.667-5.02 0-1.278-1.036-2.313-2.313-2.313h-8.034c-1.277 0-2.313-1.036-2.313-2.313s-1.036-2.313-2.313-2.313h-5.402c-1.512 3.455-2.356 7.268-2.356 11.28-.001 4.292-.001 16.671-.001 29.347z" fill="#f9a7a7"/><path d="m75.6 253h69.734c0-18.939 0 4.349 0-16.333 0-2.853-2.313-5.167-5.167-5.167h-2.167c-2.485 0-4.5 2.015-4.5 4.5 0 1.749-1.418 3.167-3.167 3.167h-17.833c-1.749 0-3.167-1.418-3.167-3.167v-2.667c0-1.749-1.418-3.167-3.167-3.167h-6.666c-1.749 0-3.167-1.418-3.167-3.167s-1.418-3.167-3.167-3.167h-17.566z" fill="#f9a7a7"/><path d="m157.75 174.333c-3.354 0-6.75-.546-6.75 4.667 0 2.669-2.164 4.833-4.833 4.833-3.866 0-7 3.134-7 7v6.667c0 3.866 3.134 7 7 7h7.917c2.071 0 3.75 1.679 3.75 3.75 0 2.807 2.276 5.083 5.083 5.083h13.734c2.071 0 3.75-1.679 3.75-3.75 0-3.795-.632-7.25 4.683-7.25 2.071 0 3.75-1.679 3.75-3.75s1.679-3.75 3.75-3.75h11.482c0-1.456 0-2.653 0-3.513 0-15.559-12.613-28.172-28.172-28.172h-14.394v7.435c0 2.071-1.679 3.75-3.75 3.75z" fill="#f9a7a7"/><path d="m128 143.373c-36.448 0-65.994-29.547-65.994-65.994v-27.641c0-9.161 7.427-16.588 16.588-16.588h115.4v44.23c0 36.447-29.546 65.993-65.994 65.993z" fill="#4671c6"/><path d="m184.207 81.84v-5.263c0-30.763-25.165-55.701-56.207-55.701-31.043 0-56.207 24.938-56.207 55.701v5.263c-9.76-.198-17.503 7.577-17.503 16.976 0 10.036 8.761 17.974 18.988 16.893 5.801 24.644 28.092 43.004 54.723 43.004 26.633 0 48.923-18.362 54.723-43.004 10.213 1.08 18.988-6.843 18.988-16.893-.001-9.403-7.751-17.174-17.505-16.976z" fill="#f9cfcf"/><g><path d="m140.174 131.871c-.515 0-1.028-.197-1.42-.591-1.498-1.51-3.533-2.686-5.885-3.401-1.414-.431-3.009-.64-4.876-.64s-3.463.209-4.877.64c-2.353.716-4.387 1.892-5.884 3.401-.777.784-2.045.789-2.828.012-.784-.778-.79-2.044-.012-2.828 1.961-1.978 4.575-3.503 7.56-4.412 1.797-.547 3.773-.813 6.041-.813s4.243.266 6.04.813c2.983.908 5.598 2.433 7.561 4.411.777.784.772 2.05-.011 2.829-.391.385-.9.579-1.409.579z" fill="#3762cc"/></g><g><g><path d="m151.86 90.081c-1.091 1.249-1.756 2.878-1.756 4.666v7.578c0 3.923 3.181 7.104 7.104 7.104 3.924 0 7.104-3.181 7.104-7.104v-7.234c-5.085-.889-9.326-2.976-12.452-5.01z" fill="#3762cc"/></g><g><path d="m91.728 95.084v7.241c0 3.923 3.181 7.104 7.104 7.104s7.104-3.181 7.104-7.104v-7.578c0-1.796-.672-3.432-1.771-4.683-3.119 2.035-7.356 4.125-12.437 5.02z" fill="#3762cc"/></g><g><path d="m169.37 97.539c-14.915 0-24.57-10.554-24.983-11.014-.737-.822-.67-2.086.151-2.824.822-.738 2.084-.67 2.822.149.108.119 9.379 10.168 22.947 9.673 1.092-.012 2.029.828 2.066 1.931.037 1.104-.827 2.029-1.932 2.067-.358.012-.716.018-1.071.018z" fill="#3762cc"/></g><g><path d="m86.63 97.539c-.355 0-.712-.006-1.072-.018-1.104-.038-1.969-.963-1.932-2.067s.974-1.944 2.066-1.931c13.679.469 22.854-9.57 22.944-9.671.739-.821 2.002-.89 2.825-.151.821.738.889 2.002.151 2.824-.412.46-10.068 11.014-24.982 11.014z" fill="#3762cc"/></g></g><g fill="#f9a7a7"><circle cx="65.522" cy="218.69" r="2.353"/><circle cx="70.468" cy="225.44" r="2.353"/><circle cx="79.093" cy="188.241" r="2.353"/><circle cx="146.343" cy="179.366" r="2.353"/><circle cx="100.667" cy="226.187" r="2.353"/><circle cx="114.292" cy="235.062" r="2.353"/><circle cx="114.292" cy="223.833" r="2.353"/><circle cx="127.292" cy="196.833" r="2.353"/><circle cx="187.412" cy="206.523" r="2.353"/><circle cx="193.994" cy="200.354" r="2.353"/><circle cx="197.75" cy="211" r="2.353"/><circle cx="98.313" cy="140.006" r="2.353"/><path d="m95.782 126.53h-3.25c-1.398 0-2.532-1.133-2.532-2.532v-.568c0-1.398-1.133-2.532-2.532-2.532h-12.686c3.528 10.315 10.016 19.272 18.468 25.877v-9.869c0-1.398 1.133-2.532 2.532-2.532s2.532-1.133 2.532-2.532v-2.781c-.001-1.398-1.134-2.531-2.532-2.531z"/><circle cx="103.583" cy="145.727" r="2.353"/><circle cx="95.96" cy="120.898" r="2.353"/><circle cx="166.908" cy="133.837" r="2.353"/></g><path d="m193.994 71.036h-88.183c-18.788 0-34.018-15.23-34.018-34.018 0-18.788 15.23-34.018 34.018-34.018h57.721c16.824 0 30.462 13.638 30.462 30.462z" fill="#4671c6"/><circle cx="158.125" cy="129.87" fill="#f9a7a7" r="2.353"/><circle cx="159.562" cy="137.652" fill="#f9a7a7" r="2.353"/><circle cx="152.458" cy="208.877" fill="#f9a7a7" r="2.353"/><path d="m175.893 161.148h-17.777v-8.688c-.001 0-.001.001-.002.001 12.619-7.532 22.181-19.744 26.146-34.659 4.838.079 9.562-1.674 13.167-4.918 3.994-3.593 6.284-8.721 6.284-14.068 0-5.118-2.022-9.918-5.694-13.516-.724-.709-1.5-1.345-2.311-1.922.177-2.016.288-4.029.288-5.999v-6.343-37.574c0-17.9-14.563-32.462-32.463-32.462h-57.721c-18.596 0-33.945 14.168-35.823 32.277-6.1 3.192-9.981 9.523-9.981 16.461v27.641c0 1.972.111 3.985.289 5.997-.811.578-1.587 1.213-2.311 1.922-3.672 3.598-5.694 8.399-5.694 13.518 0 5.347 2.291 10.476 6.286 14.07 3.605 3.243 8.359 4.993 13.166 4.917 3.96 14.892 13.499 27.089 26.09 34.624v8.722h-17.725c-16.637 0-30.172 13.535-30.172 30.172v61.679c0 1.104.896 2 2 2h152.13c1.104 0 2-.896 2-2v-61.68c0-16.636-13.535-30.172-30.172-30.172zm10.204-88.112h5.897c0 4.601.028 5.789-.121 8.236-1.902-.777-3.919-1.225-5.666-1.369 0-2.704.026-4.655-.11-6.867zm-80.286-68.036h57.721c15.694 0 28.463 12.768 28.463 28.462v35.574h-8.065-78.118c-7.487 0-15.021-2.7-20.978-7.861-22.711-19.659-8.106-56.175 20.977-56.175zm-41.805 44.738c0-4.628 2.201-8.916 5.803-11.636.175 5.86 1.803 11.494 4.455 16.293-4.537 10.772-4.471 19.46-4.471 25.509-1.723.142-3.768.594-5.666 1.369-.08-1.308-.12-2.61-.12-3.894v-27.641zm11.218 65.512c-.214-.912-1.027-1.542-1.945-1.542-.07 0-.141.003-.212.011-4.31.456-8.621-.931-11.816-3.807-3.153-2.837-4.961-6.882-4.961-11.097 0-4.035 1.596-7.821 4.494-10.661 2.808-2.751 6.814-4.39 10.969-4.316 1 .037 2.041-.786 2.041-2 0-6.592-.371-13.518 3.157-23.288 6.757 9.023 17.425 14.484 28.861 14.484h76.263c.164 2.466.133 2.535.133 8.804 0 1.158.978 2.035 2.04 2 4.282-.07 8.207 1.61 10.971 4.317 2.897 2.84 4.493 6.625 4.493 10.659 0 4.215-1.808 8.259-4.96 11.095-3.197 2.877-7.505 4.266-11.818 3.809-.991-.111-1.926.55-2.157 1.531-5.745 24.413-27.447 41.462-52.775 41.462-25.329.002-47.032-17.048-52.778-41.461zm126.841 135.75h-19.665v-40.333c0-1.104-.896-2-2-2s-2 .896-2 2v40.333h-100.8v-40.333c0-1.104-.896-2-2-2s-2 .896-2 2v40.333h-19.665v-59.68c0-14.431 11.741-26.172 26.172-26.172h19.723c1.104 0 2-.896 2-2v-8.539c7.903 3.922 16.803 6.103 26.17 6.103 9.348 0 18.233-2.172 26.124-6.079-.003.001-.006.003-.009.004v8.51c0 1.104.896 2 2 2h19.777c14.432 0 26.173 11.741 26.173 26.172z" fill="#3762cc"/></g></svg>