<svg xmlns="http://www.w3.org/2000/svg" width="143.436" height="195.234" viewBox="0 0 143.436 195.234">
  <g id="virus1" transform="translate(-13.965 -9.661)">
    <g id="Group_143" data-name="Group 143" transform="matrix(0.927, -0.375, 0.375, 0.927, -299.164, -189.184)" opacity="0.1">
      <path id="Path_278" data-name="Path 278" d="M267.621,527.873a23.627,23.627,0,1,1-11.135,31.5,23.627,23.627,0,0,1,11.135-31.5Z" transform="translate(-63.1 -91.633)" fill="#b8e0d8"/>
      <path id="Path_279" data-name="Path 279" d="M199.572,667.051a9.107,9.107,0,1,1-4.292,12.143,9.107,9.107,0,0,1,4.292-12.143Z" transform="translate(-21.49 -189.492)" fill="#b8e0d8"/>
      <path id="Path_280" data-name="Path 280" d="M168.7,517.384a9.107,9.107,0,1,1-4.292,12.143A9.107,9.107,0,0,1,168.7,517.384Z" transform="translate(0 -85.323)" fill="#b8e0d8"/>
      <path id="Path_281" data-name="Path 281" d="M296.6,394.8a9.107,9.107,0,1,1-4.292,12.143A9.107,9.107,0,0,1,296.6,394.8Z" transform="translate(-89.022)" fill="#b8e0d8"/>
      <path id="Path_282" data-name="Path 282" d="M438.112,534.722a9.107,9.107,0,1,1-4.292,12.143,9.107,9.107,0,0,1,4.292-12.143Z" transform="translate(-187.515 -97.39)" fill="#b8e0d8"/>
      <path id="Path_283" data-name="Path 283" d="M380.759,728.473a9.107,9.107,0,1,1-4.292,12.143,9.107,9.107,0,0,1,4.292-12.143Z" transform="translate(-147.597 -232.241)" fill="#b8e0d8"/>
      <path id="Path_284" data-name="Path 284" d="M243.27,618.4h0a2.056,2.056,0,0,1-.186,2.9l-25.6,22.514a2.056,2.056,0,0,1-2.9-.186h0a2.057,2.057,0,0,1,.186-2.9l25.6-22.513a2.056,2.056,0,0,1,2.9.185Z" transform="translate(-35.189 -155.764)" fill="#b8e0d8"/>
      <path id="Path_285" data-name="Path 285" d="M379.484,560.59h0a2.056,2.056,0,0,1-1.334,2.584l-32.476,10.367a2.056,2.056,0,0,1-2.584-1.334h0a2.057,2.057,0,0,1,1.334-2.584L376.9,559.257A2.056,2.056,0,0,1,379.484,560.59Z" transform="translate(-124.919 -115.019)" fill="#b8e0d8"/>
      <path id="Path_286" data-name="Path 286" d="M229.721,556.933h0a2.056,2.056,0,0,1-2.694,1.1l-31.411-13.248a2.056,2.056,0,0,1-1.1-2.693h0a2.056,2.056,0,0,1,2.693-1.1l31.412,13.247A2.057,2.057,0,0,1,229.721,556.933Z" transform="translate(-21.469 -102.261)" fill="#b8e0d8"/>
      <path id="Path_287" data-name="Path 287" d="M320.572,439.832h0a2.056,2.056,0,0,1,2.182,1.922l2.162,34.022A2.056,2.056,0,0,1,323,477.958h0a2.056,2.056,0,0,1-2.183-1.922l-2.162-34.022A2.056,2.056,0,0,1,320.572,439.832Z" transform="translate(-107.974 -31.964)" fill="#b8e0d8"/>
      <path id="Path_288" data-name="Path 288" d="M344.928,646.1h0a2.056,2.056,0,0,1,2.793.809l16.446,29.861a2.055,2.055,0,0,1-.809,2.792h0a2.056,2.056,0,0,1-2.793-.809l-16.446-29.861a2.056,2.056,0,0,1,.809-2.792Z" transform="translate(-125.525 -175.352)" fill="#b8e0d8"/>
    </g>
    <g id="Group_144" data-name="Group 144" transform="matrix(0.927, -0.375, 0.375, 0.927, -214.603, -281.481)" opacity="0.1">
      <path id="Path_278-2" data-name="Path 278" d="M262.236,526.946a14.166,14.166,0,1,1-6.676,18.889,14.166,14.166,0,0,1,6.676-18.889Z" transform="translate(-74.137 -107.66)" fill="#b8e0d8"/>
      <path id="Path_279-2" data-name="Path 279" d="M197.5,666.694a5.46,5.46,0,1,1-2.573,7.281,5.46,5.46,0,0,1,2.573-7.281Z" transform="translate(-25.249 -222.634)" fill="#b8e0d8"/>
      <path id="Path_280-2" data-name="Path 280" d="M166.62,517.027a5.46,5.46,0,1,1-2.573,7.281,5.46,5.46,0,0,1,2.573-7.281Z" transform="translate(0 -100.246)" fill="#b8e0d8"/>
      <path id="Path_281-2" data-name="Path 281" d="M294.524,394.438a5.46,5.46,0,1,1-2.573,7.281,5.46,5.46,0,0,1,2.573-7.281Z" transform="translate(-104.592)" fill="#b8e0d8"/>
      <path id="Path_282-2" data-name="Path 282" d="M436.036,534.365a5.46,5.46,0,1,1-2.573,7.281,5.46,5.46,0,0,1,2.573-7.281Z" transform="translate(-220.311 -114.424)" fill="#b8e0d8"/>
      <path id="Path_283-2" data-name="Path 283" d="M378.683,728.116a5.46,5.46,0,1,1-2.573,7.281,5.46,5.46,0,0,1,2.573-7.281Z" transform="translate(-173.411 -272.861)" fill="#b8e0d8"/>
      <path id="Path_284-2" data-name="Path 284" d="M231.577,618.119h0a1.233,1.233,0,0,1-.112,1.74l-15.348,13.5a1.233,1.233,0,0,1-1.74-.111h0a1.233,1.233,0,0,1,.112-1.74l15.348-13.5A1.233,1.233,0,0,1,231.577,618.119Z" transform="translate(-41.343 -183.007)" fill="#b8e0d8"/>
      <path id="Path_285-2" data-name="Path 285" d="M364.871,560.017h0a1.233,1.233,0,0,1-.8,1.549L344.6,567.782a1.233,1.233,0,0,1-1.549-.8h0a1.233,1.233,0,0,1,.8-1.549l19.471-6.215a1.233,1.233,0,0,1,1.549.8Z" transform="translate(-146.768 -135.136)" fill="#b8e0d8"/>
      <path id="Path_286-2" data-name="Path 286" d="M215.56,550.484h0a1.233,1.233,0,0,1-1.615.657L195.112,543.2a1.232,1.232,0,0,1-.657-1.615h0a1.233,1.233,0,0,1,1.615-.657l18.833,7.943a1.233,1.233,0,0,1,.657,1.613Z" transform="translate(-25.224 -120.147)" fill="#b8e0d8"/>
      <path id="Path_287-2" data-name="Path 287" d="M319.8,439.831h0a1.233,1.233,0,0,1,1.308,1.152l1.3,20.4a1.232,1.232,0,0,1-1.152,1.308h0a1.233,1.233,0,0,1-1.309-1.152l-1.3-20.4a1.232,1.232,0,0,1,1.153-1.308Z" transform="translate(-126.859 -37.555)" fill="#b8e0d8"/>
      <path id="Path_288-2" data-name="Path 288" d="M344.5,646h0a1.233,1.233,0,0,1,1.674.485l9.861,17.9a1.232,1.232,0,0,1-.485,1.674h0a1.233,1.233,0,0,1-1.674-.485l-9.861-17.9A1.233,1.233,0,0,1,344.5,646Z" transform="translate(-147.48 -206.021)" fill="#b8e0d8"/>
    </g>
  </g>
</svg>
