<svg xmlns="http://www.w3.org/2000/svg" width="452.079" height="367.24" viewBox="0 0 452.079 367.24">
  <g id="virus2" transform="translate(-9.44 -53.073)">
    <g id="Group_140" data-name="Group 140" transform="matrix(0.927, -0.375, 0.375, 0.927, -237.763, -180.444)" opacity="0.1">
      <path id="Path_278" data-name="Path 278" d="M298.464,533.178a77.815,77.815,0,1,1-36.673,103.758,77.815,77.815,0,0,1,36.673-103.758Z" transform="translate(0.109 0.158)" fill="#b8e0d8"/>
      <path id="Path_279" data-name="Path 279" d="M211.46,669.1a30,30,0,1,1-14.135,39.993A29.995,29.995,0,0,1,211.46,669.1Z" transform="translate(0.037 0.328)" fill="#b8e0d8"/>
      <path id="Path_280" data-name="Path 280" d="M180.584,519.429a29.994,29.994,0,1,1-14.136,39.994,29.994,29.994,0,0,1,14.136-39.994Z" transform="translate(0 0.148)" fill="#b8e0d8"/>
      <path id="Path_281" data-name="Path 281" d="M308.489,396.84a29.994,29.994,0,1,1-14.136,39.994,29.994,29.994,0,0,1,14.136-39.994Z" transform="translate(0.154)" fill="#b8e0d8"/>
      <path id="Path_282" data-name="Path 282" d="M450,536.767a29.994,29.994,0,1,1-14.136,39.993A29.994,29.994,0,0,1,450,536.767Z" transform="translate(0.324 0.168)" fill="#b8e0d8"/>
      <path id="Path_283" data-name="Path 283" d="M392.648,730.518a29.994,29.994,0,1,1-14.136,39.993,29.994,29.994,0,0,1,14.136-39.993Z" transform="translate(0.255 0.401)" fill="#b8e0d8"/>
      <path id="Path_284" data-name="Path 284" d="M310.237,620h0a6.773,6.773,0,0,1-.614,9.557L225.314,703.7a6.773,6.773,0,0,1-9.557-.613h0a6.774,6.774,0,0,1,.613-9.558l84.31-74.146a6.772,6.772,0,0,1,9.557.617Z" transform="translate(0.061 0.269)" fill="#b8e0d8"/>
      <path id="Path_285" data-name="Path 285" d="M463.176,563.873h0a6.771,6.771,0,0,1-4.392,8.509L351.825,606.526a6.772,6.772,0,0,1-8.51-4.393h0a6.773,6.773,0,0,1,4.392-8.51l106.96-34.142A6.772,6.772,0,0,1,463.176,563.873Z" transform="translate(0.216 0.199)" fill="#b8e0d8"/>
      <path id="Path_286" data-name="Path 286" d="M310.824,593.865h0a6.773,6.773,0,0,1-8.872,3.608L198.5,553.842a6.77,6.77,0,0,1-3.607-8.87h0a6.77,6.77,0,0,1,8.87-3.609l103.453,43.63a6.774,6.774,0,0,1,3.608,8.872Z" transform="translate(0.037 0.177)" fill="#b8e0d8"/>
      <path id="Path_287" data-name="Path 287" d="M324.989,439.842h0a6.771,6.771,0,0,1,7.187,6.329l7.124,112.05a6.77,6.77,0,0,1-6.328,7.187h0a6.772,6.772,0,0,1-7.189-6.329L318.66,447.03a6.77,6.77,0,0,1,6.329-7.188Z" transform="translate(0.187 0.055)" fill="#b8e0d8"/>
      <path id="Path_288" data-name="Path 288" d="M347.369,646.685h0a6.771,6.771,0,0,1,9.2,2.666L410.733,747.7a6.769,6.769,0,0,1-2.664,9.2h0a6.77,6.77,0,0,1-9.2-2.664L344.7,655.883A6.771,6.771,0,0,1,347.369,646.685Z" transform="translate(0.217 0.303)" fill="#b8e0d8"/>
    </g>
    <g id="Group_141" data-name="Group 141" transform="matrix(0.927, -0.375, 0.375, 0.927, -266.468, -203.231)" opacity="0.1">
      <path id="Path_278-2" data-name="Path 278" d="M267.621,527.873a23.627,23.627,0,1,1-11.135,31.5,23.627,23.627,0,0,1,11.135-31.5Z" transform="translate(-63.1 -91.633)" fill="#b8e0d8"/>
      <path id="Path_279-2" data-name="Path 279" d="M199.572,667.051a9.107,9.107,0,1,1-4.292,12.143,9.107,9.107,0,0,1,4.292-12.143Z" transform="translate(-21.49 -189.492)" fill="#b8e0d8"/>
      <path id="Path_280-2" data-name="Path 280" d="M168.7,517.384a9.107,9.107,0,1,1-4.292,12.143A9.107,9.107,0,0,1,168.7,517.384Z" transform="translate(0 -85.323)" fill="#b8e0d8"/>
      <path id="Path_281-2" data-name="Path 281" d="M296.6,394.8a9.107,9.107,0,1,1-4.292,12.143A9.107,9.107,0,0,1,296.6,394.8Z" transform="translate(-89.022)" fill="#b8e0d8"/>
      <path id="Path_282-2" data-name="Path 282" d="M438.112,534.722a9.107,9.107,0,1,1-4.292,12.143,9.107,9.107,0,0,1,4.292-12.143Z" transform="translate(-187.515 -97.39)" fill="#b8e0d8"/>
      <path id="Path_283-2" data-name="Path 283" d="M380.759,728.473a9.107,9.107,0,1,1-4.292,12.143,9.107,9.107,0,0,1,4.292-12.143Z" transform="translate(-147.597 -232.241)" fill="#b8e0d8"/>
      <path id="Path_284-2" data-name="Path 284" d="M243.27,618.4h0a2.056,2.056,0,0,1-.186,2.9l-25.6,22.514a2.056,2.056,0,0,1-2.9-.186h0a2.057,2.057,0,0,1,.186-2.9l25.6-22.513a2.056,2.056,0,0,1,2.9.185Z" transform="translate(-35.189 -155.764)" fill="#b8e0d8"/>
      <path id="Path_285-2" data-name="Path 285" d="M379.484,560.59h0a2.056,2.056,0,0,1-1.334,2.584l-32.476,10.367a2.056,2.056,0,0,1-2.584-1.334h0a2.057,2.057,0,0,1,1.334-2.584L376.9,559.257A2.056,2.056,0,0,1,379.484,560.59Z" transform="translate(-124.919 -115.019)" fill="#b8e0d8"/>
      <path id="Path_286-2" data-name="Path 286" d="M229.721,556.933h0a2.056,2.056,0,0,1-2.694,1.1l-31.411-13.248a2.056,2.056,0,0,1-1.1-2.693h0a2.056,2.056,0,0,1,2.693-1.1l31.412,13.247A2.057,2.057,0,0,1,229.721,556.933Z" transform="translate(-21.469 -102.261)" fill="#b8e0d8"/>
      <path id="Path_287-2" data-name="Path 287" d="M320.572,439.832h0a2.056,2.056,0,0,1,2.182,1.922l2.162,34.022A2.056,2.056,0,0,1,323,477.958h0a2.056,2.056,0,0,1-2.183-1.922l-2.162-34.022A2.056,2.056,0,0,1,320.572,439.832Z" transform="translate(-107.974 -31.964)" fill="#b8e0d8"/>
      <path id="Path_288-2" data-name="Path 288" d="M344.928,646.1h0a2.056,2.056,0,0,1,2.793.809l16.446,29.861a2.055,2.055,0,0,1-.809,2.792h0a2.056,2.056,0,0,1-2.793-.809l-16.446-29.861a2.056,2.056,0,0,1,.809-2.792Z" transform="translate(-125.525 -175.352)" fill="#b8e0d8"/>
    </g>
    <g id="Group_142" data-name="Group 142" transform="matrix(0.927, -0.375, 0.375, 0.927, -299.164, -62.331)" opacity="0.1">
      <path id="Path_278-3" data-name="Path 278" d="M263.263,527.123a15.97,15.97,0,1,1-7.527,21.295,15.97,15.97,0,0,1,7.527-21.295Z" transform="translate(-72.032 -104.603)" fill="#b8e0d8"/>
      <path id="Path_279-3" data-name="Path 279" d="M197.892,666.762a6.156,6.156,0,1,1-2.9,8.208,6.156,6.156,0,0,1,2.9-8.208Z" transform="translate(-24.532 -216.313)" fill="#b8e0d8"/>
      <path id="Path_280-3" data-name="Path 280" d="M167.016,517.1a6.156,6.156,0,1,1-2.9,8.208,6.156,6.156,0,0,1,2.9-8.208Z" transform="translate(0 -97.4)" fill="#b8e0d8"/>
      <path id="Path_281-3" data-name="Path 281" d="M294.92,394.506a6.156,6.156,0,1,1-2.9,8.208,6.156,6.156,0,0,1,2.9-8.208Z" transform="translate(-101.622)" fill="#b8e0d8"/>
      <path id="Path_282-3" data-name="Path 282" d="M436.432,534.433a6.156,6.156,0,1,1-2.9,8.208,6.156,6.156,0,0,1,2.9-8.208Z" transform="translate(-214.056 -111.175)" fill="#b8e0d8"/>
      <path id="Path_283-3" data-name="Path 283" d="M379.079,728.184a6.156,6.156,0,1,1-2.9,8.208,6.156,6.156,0,0,1,2.9-8.208Z" transform="translate(-168.488 -265.113)" fill="#b8e0d8"/>
      <path id="Path_284-3" data-name="Path 284" d="M233.807,618.172h0a1.39,1.39,0,0,1-.126,1.962l-17.3,15.218a1.39,1.39,0,0,1-1.961-.126h0a1.39,1.39,0,0,1,.126-1.962l17.3-15.217a1.39,1.39,0,0,1,1.961.125Z" transform="translate(-40.17 -177.811)" fill="#b8e0d8"/>
      <path id="Path_285-3" data-name="Path 285" d="M367.658,560.126h0a1.39,1.39,0,0,1-.9,1.746l-21.952,7.007a1.39,1.39,0,0,1-1.747-.9h0a1.39,1.39,0,0,1,.9-1.746l21.952-7.007A1.39,1.39,0,0,1,367.658,560.126Z" transform="translate(-142.6 -131.299)" fill="#b8e0d8"/>
      <path id="Path_286-3" data-name="Path 286" d="M218.261,551.714h0a1.39,1.39,0,0,1-1.821.741L195.208,543.5a1.389,1.389,0,0,1-.74-1.82h0a1.389,1.389,0,0,1,1.82-.741l21.232,8.954a1.39,1.39,0,0,1,.741,1.821Z" transform="translate(-24.508 -116.736)" fill="#b8e0d8"/>
      <path id="Path_287-3" data-name="Path 287" d="M319.948,439.831h0a1.39,1.39,0,0,1,1.475,1.3l1.462,23a1.389,1.389,0,0,1-1.3,1.475h0a1.39,1.39,0,0,1-1.475-1.3l-1.462-23A1.39,1.39,0,0,1,319.948,439.831Z" transform="translate(-123.257 -36.488)" fill="#b8e0d8"/>
      <path id="Path_288-3" data-name="Path 288" d="M344.583,646.016h0a1.39,1.39,0,0,1,1.888.547l11.117,20.184a1.389,1.389,0,0,1-.547,1.888h0a1.389,1.389,0,0,1-1.888-.547L344.036,647.9A1.39,1.39,0,0,1,344.583,646.016Z" transform="translate(-143.292 -200.171)" fill="#b8e0d8"/>
    </g>
  </g>
</svg>
